G04 #@! TF.FileFunction,Copper,L2,Bot,Signal*
%FSLAX46Y46*%
G04 Gerber Fmt 4.6, Leading zero omitted, Abs format (unit mm)*
G04 Created by KiCad (PCBNEW 4.0.6) date Tuesday, 04 April 2023 'PMt' 16:51:39*
%MOMM*%
%LPD*%
G01*
G04 APERTURE LIST*
%ADD10C,0.100000*%
%ADD11C,3.800000*%
%ADD12R,3.000000X3.500000*%
%ADD13O,1.600000X2.300000*%
%ADD14C,1.998980*%
%ADD15C,2.100000*%
%ADD16O,1.699260X3.500120*%
%ADD17C,4.500880*%
%ADD18C,4.000000*%
%ADD19C,1.000000*%
%ADD20C,2.000000*%
G04 APERTURE END LIST*
D10*
D11*
X14000000Y58250000D03*
X18250000Y58250000D03*
X23250000Y58250000D03*
X27500000Y58250000D03*
D12*
X25400000Y58250000D03*
X16100000Y58250000D03*
D11*
X14500000Y51000000D03*
X18750000Y51000000D03*
X23750000Y51000000D03*
X28000000Y51000000D03*
D12*
X25900000Y51000000D03*
X16600000Y51000000D03*
D13*
X34460000Y28875000D03*
X37000000Y28875000D03*
X37000000Y36495000D03*
X34460000Y36495000D03*
X56685000Y28875000D03*
X59225000Y28875000D03*
X59225000Y36495000D03*
X56685000Y36495000D03*
D14*
X48201400Y48880040D03*
X48201400Y53881300D03*
D15*
X50970000Y5380000D03*
X56050000Y5380000D03*
X56050000Y20620000D03*
X48430000Y20620000D03*
X45890000Y20620000D03*
X43350000Y20620000D03*
X61130000Y5380000D03*
X58590000Y5380000D03*
X53510000Y5380000D03*
X48430000Y5380000D03*
X45890000Y5380000D03*
X43350000Y5380000D03*
X40810000Y5380000D03*
X38270000Y5380000D03*
X35730000Y5380000D03*
X33190000Y5380000D03*
X61130000Y20620000D03*
X58590000Y20620000D03*
X50970000Y20620000D03*
X40810000Y20620000D03*
X38270000Y20620000D03*
X35730000Y20620000D03*
X33190000Y20620000D03*
X33190000Y7920000D03*
X33190000Y10460000D03*
X33190000Y13000000D03*
X52240000Y7920000D03*
X49700000Y7920000D03*
X53510000Y20620000D03*
D16*
X38244600Y49372800D03*
X40784600Y49372800D03*
X35704600Y49372800D03*
X59860000Y49245800D03*
X62400000Y49245800D03*
X57320000Y49245800D03*
X16750000Y33500000D03*
X19290000Y33500000D03*
X14210000Y33500000D03*
D17*
X35000000Y63500000D03*
X43500000Y63500000D03*
X7000000Y14750000D03*
X6750000Y24000000D03*
X6250000Y58500000D03*
X6500000Y51250000D03*
X6500000Y43750000D03*
X54750000Y63500000D03*
X62750000Y63250000D03*
D18*
X27500000Y58250000D02*
X49250000Y58250000D01*
X49250000Y58250000D02*
X54500000Y63500000D01*
X54500000Y63500000D02*
X54750000Y63500000D01*
X14000000Y58250000D02*
X18250000Y58250000D01*
X6250000Y58500000D02*
X13750000Y58500000D01*
X13750000Y58500000D02*
X14000000Y58250000D01*
X14500000Y51000000D02*
X6750000Y51000000D01*
X6750000Y51000000D02*
X6500000Y51250000D01*
X18750000Y51000000D02*
X14500000Y51000000D01*
D19*
X33190000Y13000000D02*
X30250000Y13000000D01*
X28000000Y10750000D02*
X28000000Y2500002D01*
X30250000Y13000000D02*
X28000000Y10750000D01*
X58590000Y5380000D02*
X58590000Y4340002D01*
X58590000Y4340002D02*
X56750000Y2500002D01*
X16750000Y30750000D02*
X16750000Y33500000D01*
X13000000Y27000000D02*
X16750000Y30750000D01*
X13000000Y4500002D02*
X13000000Y27000000D01*
X15000000Y2500002D02*
X13000000Y4500002D01*
X56750000Y2500002D02*
X28000000Y2500002D01*
X28000000Y2500002D02*
X15000000Y2500002D01*
D18*
X34704600Y43750000D02*
X55957800Y43750000D01*
X55957800Y43750000D02*
X56227800Y43480000D01*
X6500000Y43750000D02*
X34704600Y43750000D01*
X34704600Y43750000D02*
X35704600Y44750000D01*
D19*
X58750000Y5540000D02*
X58590000Y5380000D01*
D18*
X56227800Y43480000D02*
X57320000Y44572200D01*
D20*
X35704600Y49372800D02*
X35704600Y44750000D01*
X35704600Y44750000D02*
X34434600Y43480000D01*
X56227800Y43480000D02*
X34434600Y43480000D01*
X57320000Y49245800D02*
X57320000Y44572200D01*
X57320000Y44572200D02*
X56227800Y43480000D01*
X57320000Y49245800D02*
X52836900Y49245800D01*
X52836900Y49245800D02*
X48201400Y53881300D01*
D19*
X14210000Y33500000D02*
X8500000Y33500000D01*
X61130000Y2380000D02*
X61130000Y5380000D01*
X59750000Y1000000D02*
X61130000Y2380000D01*
X12250000Y1000000D02*
X59750000Y1000000D01*
X2750000Y10500000D02*
X12250000Y1000000D01*
X2750000Y27750000D02*
X2750000Y10500000D01*
X8500000Y33500000D02*
X2750000Y27750000D01*
X57500000Y24887200D02*
X62862800Y24887200D01*
X56250000Y9000000D02*
X53510000Y6260000D01*
X57000000Y9000000D02*
X56250000Y9000000D01*
X64500000Y16500000D02*
X57000000Y9000000D01*
X64500000Y23250000D02*
X64500000Y16500000D01*
X62862800Y24887200D02*
X64500000Y23250000D01*
X53510000Y6260000D02*
X53510000Y5380000D01*
X53510000Y5380000D02*
X53510000Y6260000D01*
X57726400Y24887200D02*
X57500000Y24887200D01*
X57500000Y24887200D02*
X35628400Y24887200D01*
X34460000Y26055600D02*
X34460000Y28875000D01*
X35628400Y24887200D02*
X34460000Y26055600D01*
X56685000Y25928600D02*
X56685000Y28875000D01*
X57726400Y24887200D02*
X56685000Y25928600D01*
G36*
X3746285Y70629585D02*
X2873480Y69758302D01*
X2400539Y68619333D01*
X2399463Y67386077D01*
X2870415Y66246285D01*
X3741698Y65373480D01*
X4880667Y64900539D01*
X6113923Y64899463D01*
X7253715Y65370415D01*
X8126520Y66241698D01*
X8599461Y67380667D01*
X8600537Y68613923D01*
X8129585Y69753715D01*
X7258302Y70626520D01*
X6539482Y70925000D01*
X66790469Y70925000D01*
X66623480Y70758302D01*
X66150539Y69619333D01*
X66149463Y68386077D01*
X66620415Y67246285D01*
X67491698Y66373480D01*
X68630667Y65900539D01*
X69863923Y65899463D01*
X71003715Y66370415D01*
X71876520Y67241698D01*
X71925000Y67358451D01*
X71925000Y1575000D01*
X70459094Y1575000D01*
X70876520Y1991698D01*
X71349461Y3130667D01*
X71350537Y4363923D01*
X70879585Y5503715D01*
X70008302Y6376520D01*
X68869333Y6849461D01*
X67636077Y6850537D01*
X66496285Y6379585D01*
X65623480Y5508302D01*
X65150539Y4369333D01*
X65149463Y3136077D01*
X65620415Y1996285D01*
X66040965Y1575000D01*
X62951277Y1575000D01*
X62977759Y1614633D01*
X63019604Y1825000D01*
X63130001Y2380000D01*
X63130000Y2380005D01*
X63130000Y3773411D01*
X63290524Y3933655D01*
X63679556Y4870548D01*
X63680441Y5885001D01*
X63293045Y6822572D01*
X62576345Y7540524D01*
X61639452Y7929556D01*
X60624999Y7930441D01*
X59687428Y7543045D01*
X58969476Y6826345D01*
X58589545Y5911370D01*
X58213045Y6822572D01*
X57836503Y7199772D01*
X58414214Y7585786D01*
X65914211Y15085784D01*
X65914214Y15085786D01*
X66347759Y15734633D01*
X66500001Y16500000D01*
X66500000Y16500005D01*
X66500000Y23250000D01*
X66347759Y24015367D01*
X65914214Y24664214D01*
X65914211Y24664216D01*
X64277014Y26301414D01*
X63628167Y26734959D01*
X62862800Y26887201D01*
X62862795Y26887200D01*
X60878382Y26887200D01*
X61349923Y27592911D01*
X61525000Y28473083D01*
X61525000Y29276917D01*
X61349923Y30157089D01*
X60851346Y30903263D01*
X60105172Y31401840D01*
X59225000Y31576917D01*
X58344828Y31401840D01*
X57955000Y31141366D01*
X57565172Y31401840D01*
X56685000Y31576917D01*
X55804828Y31401840D01*
X55058654Y30903263D01*
X54560077Y30157089D01*
X54385000Y29276917D01*
X54385000Y28473083D01*
X54560077Y27592911D01*
X54685000Y27405950D01*
X54685000Y26887200D01*
X38653382Y26887200D01*
X39124923Y27592911D01*
X39300000Y28473083D01*
X39300000Y29276917D01*
X39124923Y30157089D01*
X38626346Y30903263D01*
X37880172Y31401840D01*
X37000000Y31576917D01*
X36119828Y31401840D01*
X35730000Y31141366D01*
X35340172Y31401840D01*
X34460000Y31576917D01*
X33579828Y31401840D01*
X32833654Y30903263D01*
X32335077Y30157089D01*
X32160000Y29276917D01*
X32160000Y28473083D01*
X32335077Y27592911D01*
X32460000Y27405950D01*
X32460000Y26055605D01*
X32459999Y26055600D01*
X32612241Y25290233D01*
X33045786Y24641386D01*
X34214184Y23472989D01*
X34214186Y23472986D01*
X34668302Y23169556D01*
X34863033Y23039441D01*
X34893356Y23033409D01*
X34459274Y22854050D01*
X33699452Y23169556D01*
X32684999Y23170441D01*
X31747428Y22783045D01*
X31029476Y22066345D01*
X30640444Y21129452D01*
X30639559Y20114999D01*
X31026955Y19177428D01*
X31743655Y18459476D01*
X32680548Y18070444D01*
X33695001Y18069559D01*
X34460726Y18385950D01*
X35220548Y18070444D01*
X36235001Y18069559D01*
X37000726Y18385950D01*
X37760548Y18070444D01*
X38775001Y18069559D01*
X39540726Y18385950D01*
X40300548Y18070444D01*
X41315001Y18069559D01*
X42080726Y18385950D01*
X42840548Y18070444D01*
X43855001Y18069559D01*
X44620726Y18385950D01*
X45380548Y18070444D01*
X46395001Y18069559D01*
X47160726Y18385950D01*
X47920548Y18070444D01*
X48935001Y18069559D01*
X49700726Y18385950D01*
X50460548Y18070444D01*
X51475001Y18069559D01*
X52240726Y18385950D01*
X53000548Y18070444D01*
X54015001Y18069559D01*
X54780726Y18385950D01*
X55540548Y18070444D01*
X56555001Y18069559D01*
X57320726Y18385950D01*
X58080548Y18070444D01*
X59095001Y18069559D01*
X59860726Y18385950D01*
X60620548Y18070444D01*
X61635001Y18069559D01*
X62500000Y18426969D01*
X62500000Y17328427D01*
X56152099Y10980527D01*
X55484633Y10847759D01*
X54835786Y10414214D01*
X54835784Y10414211D01*
X54093865Y9672292D01*
X53686345Y10080524D01*
X52749452Y10469556D01*
X51734999Y10470441D01*
X50969274Y10154050D01*
X50209452Y10469556D01*
X49194999Y10470441D01*
X48257428Y10083045D01*
X47539476Y9366345D01*
X47150444Y8429452D01*
X47149736Y7618011D01*
X46399452Y7929556D01*
X45384999Y7930441D01*
X44619274Y7614050D01*
X43859452Y7929556D01*
X42844999Y7930441D01*
X42079274Y7614050D01*
X41319452Y7929556D01*
X40304999Y7930441D01*
X39539274Y7614050D01*
X38779452Y7929556D01*
X37764999Y7930441D01*
X36999274Y7614050D01*
X36239452Y7929556D01*
X35740009Y7929992D01*
X35740441Y8425001D01*
X35424050Y9190726D01*
X35739556Y9950548D01*
X35740441Y10965001D01*
X35353045Y11902572D01*
X34636345Y12620524D01*
X33699452Y13009556D01*
X32684999Y13010441D01*
X31747428Y12623045D01*
X31029476Y11906345D01*
X30640444Y10969452D01*
X30639559Y9954999D01*
X30955950Y9189274D01*
X30640444Y8429452D01*
X30639559Y7414999D01*
X30955950Y6649274D01*
X30640444Y5889452D01*
X30639559Y4874999D01*
X31026955Y3937428D01*
X31743655Y3219476D01*
X32272212Y3000000D01*
X13078427Y3000000D01*
X4750000Y11328428D01*
X4750000Y11695373D01*
X4872773Y11572386D01*
X6250719Y11000213D01*
X7742736Y10998911D01*
X9121678Y11568678D01*
X10177614Y12622773D01*
X10749787Y14000719D01*
X10751089Y15492736D01*
X10181322Y16871678D01*
X9127227Y17927614D01*
X7749281Y18499787D01*
X6257264Y18501089D01*
X4878322Y17931322D01*
X4750000Y17803224D01*
X4750000Y20769557D01*
X6000719Y20250213D01*
X7492736Y20248911D01*
X8871678Y20818678D01*
X9927614Y21872773D01*
X10499787Y23250719D01*
X10501089Y24742736D01*
X9931322Y26121678D01*
X8877227Y27177614D01*
X7499281Y27749787D01*
X6007264Y27751089D01*
X5278326Y27449898D01*
X9328428Y31500000D01*
X12130588Y31500000D01*
X12548561Y30874459D01*
X13310836Y30365123D01*
X14210000Y30186268D01*
X15109164Y30365123D01*
X15871439Y30874459D01*
X16380775Y31636734D01*
X16559630Y32535898D01*
X16559630Y34464102D01*
X16940370Y34464102D01*
X16940370Y32535898D01*
X17119225Y31636734D01*
X17628561Y30874459D01*
X18390836Y30365123D01*
X19290000Y30186268D01*
X20189164Y30365123D01*
X20951439Y30874459D01*
X21460775Y31636734D01*
X21639630Y32535898D01*
X21639630Y34464102D01*
X21460775Y35363266D01*
X20951439Y36125541D01*
X20189164Y36634877D01*
X19290000Y36813732D01*
X18390836Y36634877D01*
X17628561Y36125541D01*
X17119225Y35363266D01*
X16940370Y34464102D01*
X16559630Y34464102D01*
X16380775Y35363266D01*
X15871439Y36125541D01*
X15109164Y36634877D01*
X14210000Y36813732D01*
X13310836Y36634877D01*
X12548561Y36125541D01*
X12130588Y35500000D01*
X8500005Y35500000D01*
X8500000Y35500001D01*
X7734633Y35347759D01*
X7085786Y34914214D01*
X1575000Y29403428D01*
X1575000Y36896917D01*
X32160000Y36896917D01*
X32160000Y36093083D01*
X32335077Y35212911D01*
X32833654Y34466737D01*
X33579828Y33968160D01*
X34460000Y33793083D01*
X35340172Y33968160D01*
X35730000Y34228634D01*
X36119828Y33968160D01*
X37000000Y33793083D01*
X37880172Y33968160D01*
X38626346Y34466737D01*
X39124923Y35212911D01*
X39300000Y36093083D01*
X39300000Y36896917D01*
X54385000Y36896917D01*
X54385000Y36093083D01*
X54560077Y35212911D01*
X55058654Y34466737D01*
X55804828Y33968160D01*
X56685000Y33793083D01*
X57565172Y33968160D01*
X57955000Y34228634D01*
X58344828Y33968160D01*
X59225000Y33793083D01*
X60105172Y33968160D01*
X60851346Y34466737D01*
X61349923Y35212911D01*
X61525000Y36093083D01*
X61525000Y36896917D01*
X61349923Y37777089D01*
X60851346Y38523263D01*
X60105172Y39021840D01*
X59225000Y39196917D01*
X58344828Y39021840D01*
X57955000Y38761366D01*
X57565172Y39021840D01*
X56685000Y39196917D01*
X55804828Y39021840D01*
X55058654Y38523263D01*
X54560077Y37777089D01*
X54385000Y36896917D01*
X39300000Y36896917D01*
X39124923Y37777089D01*
X38626346Y38523263D01*
X37880172Y39021840D01*
X37000000Y39196917D01*
X36119828Y39021840D01*
X35730000Y38761366D01*
X35340172Y39021840D01*
X34460000Y39196917D01*
X33579828Y39021840D01*
X32833654Y38523263D01*
X32335077Y37777089D01*
X32160000Y36896917D01*
X1575000Y36896917D01*
X1575000Y57757264D01*
X2498911Y57757264D01*
X3068678Y56378322D01*
X4122773Y55322386D01*
X5325841Y54822829D01*
X4378322Y54431322D01*
X3322386Y53377227D01*
X2750213Y51999281D01*
X2748911Y50507264D01*
X3318678Y49128322D01*
X4372773Y48072386D01*
X5750719Y47500213D01*
X7242736Y47498911D01*
X7245372Y47500000D01*
X18750000Y47500000D01*
X19250530Y47599562D01*
X19423335Y47599411D01*
X19584451Y47665983D01*
X20089392Y47766422D01*
X20513724Y48049951D01*
X20673429Y48115940D01*
X20796802Y48239098D01*
X21224874Y48525126D01*
X21301678Y48640071D01*
X21821540Y48119301D01*
X23070731Y47600591D01*
X24423335Y47599411D01*
X24716668Y47720614D01*
X27031684Y47720614D01*
X27320731Y47600591D01*
X28673335Y47599411D01*
X29923429Y48115940D01*
X30880699Y49071540D01*
X31399409Y50320731D01*
X31399423Y50336902D01*
X35894970Y50336902D01*
X35894970Y48408698D01*
X36073825Y47509534D01*
X36583161Y46747259D01*
X37345436Y46237923D01*
X38244600Y46059068D01*
X39143764Y46237923D01*
X39514600Y46485708D01*
X39885436Y46237923D01*
X40784600Y46059068D01*
X41683764Y46237923D01*
X42446039Y46747259D01*
X42955375Y47509534D01*
X43129524Y48385042D01*
X45701477Y48385042D01*
X46081200Y47466042D01*
X46783704Y46762311D01*
X47702039Y46380985D01*
X48696398Y46380117D01*
X49615398Y46759840D01*
X50319129Y47462344D01*
X50700455Y48380679D01*
X50701323Y49375038D01*
X50356365Y50209902D01*
X57510370Y50209902D01*
X57510370Y48281698D01*
X57689225Y47382534D01*
X58198561Y46620259D01*
X58960836Y46110923D01*
X59860000Y45932068D01*
X60759164Y46110923D01*
X61130000Y46358708D01*
X61500836Y46110923D01*
X62400000Y45932068D01*
X63299164Y46110923D01*
X64061439Y46620259D01*
X64570775Y47382534D01*
X64749630Y48281698D01*
X64749630Y50209902D01*
X64570775Y51109066D01*
X64061439Y51871341D01*
X63299164Y52380677D01*
X62400000Y52559532D01*
X61500836Y52380677D01*
X61130000Y52132892D01*
X60759164Y52380677D01*
X59860000Y52559532D01*
X58960836Y52380677D01*
X58198561Y51871341D01*
X57689225Y51109066D01*
X57510370Y50209902D01*
X50356365Y50209902D01*
X50321600Y50294038D01*
X49619096Y50997769D01*
X48700761Y51379095D01*
X47706402Y51379963D01*
X46787402Y51000240D01*
X46083671Y50297736D01*
X45702345Y49379401D01*
X45701477Y48385042D01*
X43129524Y48385042D01*
X43134230Y48408698D01*
X43134230Y50336902D01*
X42955375Y51236066D01*
X42446039Y51998341D01*
X41683764Y52507677D01*
X40784600Y52686532D01*
X39885436Y52507677D01*
X39514600Y52259892D01*
X39143764Y52507677D01*
X38244600Y52686532D01*
X37345436Y52507677D01*
X36583161Y51998341D01*
X36073825Y51236066D01*
X35894970Y50336902D01*
X31399423Y50336902D01*
X31400589Y51673335D01*
X30884060Y52923429D01*
X29928460Y53880699D01*
X28679269Y54399409D01*
X27326665Y54400589D01*
X27033332Y54279386D01*
X24718316Y54279386D01*
X24429269Y54399409D01*
X23076665Y54400589D01*
X21826571Y53884060D01*
X21301616Y53360021D01*
X21224874Y53474874D01*
X20800543Y53758403D01*
X20678460Y53880699D01*
X20517461Y53947552D01*
X20089392Y54233578D01*
X19588864Y54333139D01*
X19429269Y54399409D01*
X19254940Y54399561D01*
X18750000Y54500000D01*
X8452902Y54500000D01*
X7424159Y54927171D01*
X7600418Y55000000D01*
X12743167Y55000000D01*
X13161136Y54916861D01*
X13320731Y54850591D01*
X13495060Y54850439D01*
X14000000Y54750000D01*
X18250000Y54750000D01*
X18750530Y54849562D01*
X18923335Y54849411D01*
X19084451Y54915983D01*
X19589392Y55016422D01*
X20013724Y55299951D01*
X20173429Y55365940D01*
X20296802Y55489098D01*
X20724874Y55775126D01*
X20801678Y55890071D01*
X21321540Y55369301D01*
X22570731Y54850591D01*
X23923335Y54849411D01*
X24216668Y54970614D01*
X26390900Y54970614D01*
X26661136Y54916861D01*
X26820731Y54850591D01*
X26995060Y54850439D01*
X27500000Y54750000D01*
X49250000Y54750000D01*
X50589392Y55016422D01*
X51724874Y55775126D01*
X55843656Y59893908D01*
X56871678Y60318678D01*
X57927614Y61372773D01*
X58398695Y62507264D01*
X58998911Y62507264D01*
X59568678Y61128322D01*
X60622773Y60072386D01*
X62000719Y59500213D01*
X63492736Y59498911D01*
X64871678Y60068678D01*
X65927614Y61122773D01*
X66499787Y62500719D01*
X66501089Y63992736D01*
X65931322Y65371678D01*
X64877227Y66427614D01*
X63499281Y66999787D01*
X62007264Y67001089D01*
X60628322Y66431322D01*
X59572386Y65377227D01*
X59000213Y63999281D01*
X58998911Y62507264D01*
X58398695Y62507264D01*
X58499787Y62750719D01*
X58501089Y64242736D01*
X57931322Y65621678D01*
X56877227Y66677614D01*
X55499281Y67249787D01*
X54007264Y67251089D01*
X52628322Y66681322D01*
X51572386Y65627227D01*
X51497760Y65447508D01*
X47800252Y61750000D01*
X46834252Y61750000D01*
X47249787Y62750719D01*
X47251089Y64242736D01*
X46681322Y65621678D01*
X45627227Y66677614D01*
X44249281Y67249787D01*
X42757264Y67251089D01*
X41378322Y66681322D01*
X40322386Y65627227D01*
X39750213Y64249281D01*
X39748911Y62757264D01*
X40165104Y61750000D01*
X38334252Y61750000D01*
X38749787Y62750719D01*
X38751089Y64242736D01*
X38181322Y65621678D01*
X37127227Y66677614D01*
X35749281Y67249787D01*
X34257264Y67251089D01*
X32878322Y66681322D01*
X31822386Y65627227D01*
X31250213Y64249281D01*
X31248911Y62757264D01*
X31665104Y61750000D01*
X27500000Y61750000D01*
X26999470Y61650438D01*
X26826665Y61650589D01*
X26665549Y61584017D01*
X26390900Y61529386D01*
X24218316Y61529386D01*
X23929269Y61649409D01*
X22576665Y61650589D01*
X21326571Y61134060D01*
X20801616Y60610021D01*
X20724874Y60724874D01*
X20300543Y61008403D01*
X20178460Y61130699D01*
X20017461Y61197552D01*
X19589392Y61483578D01*
X19088864Y61583139D01*
X18929269Y61649409D01*
X18754940Y61649561D01*
X18250000Y61750000D01*
X15006833Y61750000D01*
X13750000Y62000000D01*
X7600835Y62000000D01*
X6999281Y62249787D01*
X5507264Y62251089D01*
X4128322Y61681322D01*
X3072386Y60627227D01*
X2500213Y59249281D01*
X2498911Y57757264D01*
X1575000Y57757264D01*
X1575000Y70925000D01*
X4461245Y70925000D01*
X3746285Y70629585D01*
X3746285Y70629585D01*
G37*
X3746285Y70629585D02*
X2873480Y69758302D01*
X2400539Y68619333D01*
X2399463Y67386077D01*
X2870415Y66246285D01*
X3741698Y65373480D01*
X4880667Y64900539D01*
X6113923Y64899463D01*
X7253715Y65370415D01*
X8126520Y66241698D01*
X8599461Y67380667D01*
X8600537Y68613923D01*
X8129585Y69753715D01*
X7258302Y70626520D01*
X6539482Y70925000D01*
X66790469Y70925000D01*
X66623480Y70758302D01*
X66150539Y69619333D01*
X66149463Y68386077D01*
X66620415Y67246285D01*
X67491698Y66373480D01*
X68630667Y65900539D01*
X69863923Y65899463D01*
X71003715Y66370415D01*
X71876520Y67241698D01*
X71925000Y67358451D01*
X71925000Y1575000D01*
X70459094Y1575000D01*
X70876520Y1991698D01*
X71349461Y3130667D01*
X71350537Y4363923D01*
X70879585Y5503715D01*
X70008302Y6376520D01*
X68869333Y6849461D01*
X67636077Y6850537D01*
X66496285Y6379585D01*
X65623480Y5508302D01*
X65150539Y4369333D01*
X65149463Y3136077D01*
X65620415Y1996285D01*
X66040965Y1575000D01*
X62951277Y1575000D01*
X62977759Y1614633D01*
X63019604Y1825000D01*
X63130001Y2380000D01*
X63130000Y2380005D01*
X63130000Y3773411D01*
X63290524Y3933655D01*
X63679556Y4870548D01*
X63680441Y5885001D01*
X63293045Y6822572D01*
X62576345Y7540524D01*
X61639452Y7929556D01*
X60624999Y7930441D01*
X59687428Y7543045D01*
X58969476Y6826345D01*
X58589545Y5911370D01*
X58213045Y6822572D01*
X57836503Y7199772D01*
X58414214Y7585786D01*
X65914211Y15085784D01*
X65914214Y15085786D01*
X66347759Y15734633D01*
X66500001Y16500000D01*
X66500000Y16500005D01*
X66500000Y23250000D01*
X66347759Y24015367D01*
X65914214Y24664214D01*
X65914211Y24664216D01*
X64277014Y26301414D01*
X63628167Y26734959D01*
X62862800Y26887201D01*
X62862795Y26887200D01*
X60878382Y26887200D01*
X61349923Y27592911D01*
X61525000Y28473083D01*
X61525000Y29276917D01*
X61349923Y30157089D01*
X60851346Y30903263D01*
X60105172Y31401840D01*
X59225000Y31576917D01*
X58344828Y31401840D01*
X57955000Y31141366D01*
X57565172Y31401840D01*
X56685000Y31576917D01*
X55804828Y31401840D01*
X55058654Y30903263D01*
X54560077Y30157089D01*
X54385000Y29276917D01*
X54385000Y28473083D01*
X54560077Y27592911D01*
X54685000Y27405950D01*
X54685000Y26887200D01*
X38653382Y26887200D01*
X39124923Y27592911D01*
X39300000Y28473083D01*
X39300000Y29276917D01*
X39124923Y30157089D01*
X38626346Y30903263D01*
X37880172Y31401840D01*
X37000000Y31576917D01*
X36119828Y31401840D01*
X35730000Y31141366D01*
X35340172Y31401840D01*
X34460000Y31576917D01*
X33579828Y31401840D01*
X32833654Y30903263D01*
X32335077Y30157089D01*
X32160000Y29276917D01*
X32160000Y28473083D01*
X32335077Y27592911D01*
X32460000Y27405950D01*
X32460000Y26055605D01*
X32459999Y26055600D01*
X32612241Y25290233D01*
X33045786Y24641386D01*
X34214184Y23472989D01*
X34214186Y23472986D01*
X34668302Y23169556D01*
X34863033Y23039441D01*
X34893356Y23033409D01*
X34459274Y22854050D01*
X33699452Y23169556D01*
X32684999Y23170441D01*
X31747428Y22783045D01*
X31029476Y22066345D01*
X30640444Y21129452D01*
X30639559Y20114999D01*
X31026955Y19177428D01*
X31743655Y18459476D01*
X32680548Y18070444D01*
X33695001Y18069559D01*
X34460726Y18385950D01*
X35220548Y18070444D01*
X36235001Y18069559D01*
X37000726Y18385950D01*
X37760548Y18070444D01*
X38775001Y18069559D01*
X39540726Y18385950D01*
X40300548Y18070444D01*
X41315001Y18069559D01*
X42080726Y18385950D01*
X42840548Y18070444D01*
X43855001Y18069559D01*
X44620726Y18385950D01*
X45380548Y18070444D01*
X46395001Y18069559D01*
X47160726Y18385950D01*
X47920548Y18070444D01*
X48935001Y18069559D01*
X49700726Y18385950D01*
X50460548Y18070444D01*
X51475001Y18069559D01*
X52240726Y18385950D01*
X53000548Y18070444D01*
X54015001Y18069559D01*
X54780726Y18385950D01*
X55540548Y18070444D01*
X56555001Y18069559D01*
X57320726Y18385950D01*
X58080548Y18070444D01*
X59095001Y18069559D01*
X59860726Y18385950D01*
X60620548Y18070444D01*
X61635001Y18069559D01*
X62500000Y18426969D01*
X62500000Y17328427D01*
X56152099Y10980527D01*
X55484633Y10847759D01*
X54835786Y10414214D01*
X54835784Y10414211D01*
X54093865Y9672292D01*
X53686345Y10080524D01*
X52749452Y10469556D01*
X51734999Y10470441D01*
X50969274Y10154050D01*
X50209452Y10469556D01*
X49194999Y10470441D01*
X48257428Y10083045D01*
X47539476Y9366345D01*
X47150444Y8429452D01*
X47149736Y7618011D01*
X46399452Y7929556D01*
X45384999Y7930441D01*
X44619274Y7614050D01*
X43859452Y7929556D01*
X42844999Y7930441D01*
X42079274Y7614050D01*
X41319452Y7929556D01*
X40304999Y7930441D01*
X39539274Y7614050D01*
X38779452Y7929556D01*
X37764999Y7930441D01*
X36999274Y7614050D01*
X36239452Y7929556D01*
X35740009Y7929992D01*
X35740441Y8425001D01*
X35424050Y9190726D01*
X35739556Y9950548D01*
X35740441Y10965001D01*
X35353045Y11902572D01*
X34636345Y12620524D01*
X33699452Y13009556D01*
X32684999Y13010441D01*
X31747428Y12623045D01*
X31029476Y11906345D01*
X30640444Y10969452D01*
X30639559Y9954999D01*
X30955950Y9189274D01*
X30640444Y8429452D01*
X30639559Y7414999D01*
X30955950Y6649274D01*
X30640444Y5889452D01*
X30639559Y4874999D01*
X31026955Y3937428D01*
X31743655Y3219476D01*
X32272212Y3000000D01*
X13078427Y3000000D01*
X4750000Y11328428D01*
X4750000Y11695373D01*
X4872773Y11572386D01*
X6250719Y11000213D01*
X7742736Y10998911D01*
X9121678Y11568678D01*
X10177614Y12622773D01*
X10749787Y14000719D01*
X10751089Y15492736D01*
X10181322Y16871678D01*
X9127227Y17927614D01*
X7749281Y18499787D01*
X6257264Y18501089D01*
X4878322Y17931322D01*
X4750000Y17803224D01*
X4750000Y20769557D01*
X6000719Y20250213D01*
X7492736Y20248911D01*
X8871678Y20818678D01*
X9927614Y21872773D01*
X10499787Y23250719D01*
X10501089Y24742736D01*
X9931322Y26121678D01*
X8877227Y27177614D01*
X7499281Y27749787D01*
X6007264Y27751089D01*
X5278326Y27449898D01*
X9328428Y31500000D01*
X12130588Y31500000D01*
X12548561Y30874459D01*
X13310836Y30365123D01*
X14210000Y30186268D01*
X15109164Y30365123D01*
X15871439Y30874459D01*
X16380775Y31636734D01*
X16559630Y32535898D01*
X16559630Y34464102D01*
X16940370Y34464102D01*
X16940370Y32535898D01*
X17119225Y31636734D01*
X17628561Y30874459D01*
X18390836Y30365123D01*
X19290000Y30186268D01*
X20189164Y30365123D01*
X20951439Y30874459D01*
X21460775Y31636734D01*
X21639630Y32535898D01*
X21639630Y34464102D01*
X21460775Y35363266D01*
X20951439Y36125541D01*
X20189164Y36634877D01*
X19290000Y36813732D01*
X18390836Y36634877D01*
X17628561Y36125541D01*
X17119225Y35363266D01*
X16940370Y34464102D01*
X16559630Y34464102D01*
X16380775Y35363266D01*
X15871439Y36125541D01*
X15109164Y36634877D01*
X14210000Y36813732D01*
X13310836Y36634877D01*
X12548561Y36125541D01*
X12130588Y35500000D01*
X8500005Y35500000D01*
X8500000Y35500001D01*
X7734633Y35347759D01*
X7085786Y34914214D01*
X1575000Y29403428D01*
X1575000Y36896917D01*
X32160000Y36896917D01*
X32160000Y36093083D01*
X32335077Y35212911D01*
X32833654Y34466737D01*
X33579828Y33968160D01*
X34460000Y33793083D01*
X35340172Y33968160D01*
X35730000Y34228634D01*
X36119828Y33968160D01*
X37000000Y33793083D01*
X37880172Y33968160D01*
X38626346Y34466737D01*
X39124923Y35212911D01*
X39300000Y36093083D01*
X39300000Y36896917D01*
X54385000Y36896917D01*
X54385000Y36093083D01*
X54560077Y35212911D01*
X55058654Y34466737D01*
X55804828Y33968160D01*
X56685000Y33793083D01*
X57565172Y33968160D01*
X57955000Y34228634D01*
X58344828Y33968160D01*
X59225000Y33793083D01*
X60105172Y33968160D01*
X60851346Y34466737D01*
X61349923Y35212911D01*
X61525000Y36093083D01*
X61525000Y36896917D01*
X61349923Y37777089D01*
X60851346Y38523263D01*
X60105172Y39021840D01*
X59225000Y39196917D01*
X58344828Y39021840D01*
X57955000Y38761366D01*
X57565172Y39021840D01*
X56685000Y39196917D01*
X55804828Y39021840D01*
X55058654Y38523263D01*
X54560077Y37777089D01*
X54385000Y36896917D01*
X39300000Y36896917D01*
X39124923Y37777089D01*
X38626346Y38523263D01*
X37880172Y39021840D01*
X37000000Y39196917D01*
X36119828Y39021840D01*
X35730000Y38761366D01*
X35340172Y39021840D01*
X34460000Y39196917D01*
X33579828Y39021840D01*
X32833654Y38523263D01*
X32335077Y37777089D01*
X32160000Y36896917D01*
X1575000Y36896917D01*
X1575000Y57757264D01*
X2498911Y57757264D01*
X3068678Y56378322D01*
X4122773Y55322386D01*
X5325841Y54822829D01*
X4378322Y54431322D01*
X3322386Y53377227D01*
X2750213Y51999281D01*
X2748911Y50507264D01*
X3318678Y49128322D01*
X4372773Y48072386D01*
X5750719Y47500213D01*
X7242736Y47498911D01*
X7245372Y47500000D01*
X18750000Y47500000D01*
X19250530Y47599562D01*
X19423335Y47599411D01*
X19584451Y47665983D01*
X20089392Y47766422D01*
X20513724Y48049951D01*
X20673429Y48115940D01*
X20796802Y48239098D01*
X21224874Y48525126D01*
X21301678Y48640071D01*
X21821540Y48119301D01*
X23070731Y47600591D01*
X24423335Y47599411D01*
X24716668Y47720614D01*
X27031684Y47720614D01*
X27320731Y47600591D01*
X28673335Y47599411D01*
X29923429Y48115940D01*
X30880699Y49071540D01*
X31399409Y50320731D01*
X31399423Y50336902D01*
X35894970Y50336902D01*
X35894970Y48408698D01*
X36073825Y47509534D01*
X36583161Y46747259D01*
X37345436Y46237923D01*
X38244600Y46059068D01*
X39143764Y46237923D01*
X39514600Y46485708D01*
X39885436Y46237923D01*
X40784600Y46059068D01*
X41683764Y46237923D01*
X42446039Y46747259D01*
X42955375Y47509534D01*
X43129524Y48385042D01*
X45701477Y48385042D01*
X46081200Y47466042D01*
X46783704Y46762311D01*
X47702039Y46380985D01*
X48696398Y46380117D01*
X49615398Y46759840D01*
X50319129Y47462344D01*
X50700455Y48380679D01*
X50701323Y49375038D01*
X50356365Y50209902D01*
X57510370Y50209902D01*
X57510370Y48281698D01*
X57689225Y47382534D01*
X58198561Y46620259D01*
X58960836Y46110923D01*
X59860000Y45932068D01*
X60759164Y46110923D01*
X61130000Y46358708D01*
X61500836Y46110923D01*
X62400000Y45932068D01*
X63299164Y46110923D01*
X64061439Y46620259D01*
X64570775Y47382534D01*
X64749630Y48281698D01*
X64749630Y50209902D01*
X64570775Y51109066D01*
X64061439Y51871341D01*
X63299164Y52380677D01*
X62400000Y52559532D01*
X61500836Y52380677D01*
X61130000Y52132892D01*
X60759164Y52380677D01*
X59860000Y52559532D01*
X58960836Y52380677D01*
X58198561Y51871341D01*
X57689225Y51109066D01*
X57510370Y50209902D01*
X50356365Y50209902D01*
X50321600Y50294038D01*
X49619096Y50997769D01*
X48700761Y51379095D01*
X47706402Y51379963D01*
X46787402Y51000240D01*
X46083671Y50297736D01*
X45702345Y49379401D01*
X45701477Y48385042D01*
X43129524Y48385042D01*
X43134230Y48408698D01*
X43134230Y50336902D01*
X42955375Y51236066D01*
X42446039Y51998341D01*
X41683764Y52507677D01*
X40784600Y52686532D01*
X39885436Y52507677D01*
X39514600Y52259892D01*
X39143764Y52507677D01*
X38244600Y52686532D01*
X37345436Y52507677D01*
X36583161Y51998341D01*
X36073825Y51236066D01*
X35894970Y50336902D01*
X31399423Y50336902D01*
X31400589Y51673335D01*
X30884060Y52923429D01*
X29928460Y53880699D01*
X28679269Y54399409D01*
X27326665Y54400589D01*
X27033332Y54279386D01*
X24718316Y54279386D01*
X24429269Y54399409D01*
X23076665Y54400589D01*
X21826571Y53884060D01*
X21301616Y53360021D01*
X21224874Y53474874D01*
X20800543Y53758403D01*
X20678460Y53880699D01*
X20517461Y53947552D01*
X20089392Y54233578D01*
X19588864Y54333139D01*
X19429269Y54399409D01*
X19254940Y54399561D01*
X18750000Y54500000D01*
X8452902Y54500000D01*
X7424159Y54927171D01*
X7600418Y55000000D01*
X12743167Y55000000D01*
X13161136Y54916861D01*
X13320731Y54850591D01*
X13495060Y54850439D01*
X14000000Y54750000D01*
X18250000Y54750000D01*
X18750530Y54849562D01*
X18923335Y54849411D01*
X19084451Y54915983D01*
X19589392Y55016422D01*
X20013724Y55299951D01*
X20173429Y55365940D01*
X20296802Y55489098D01*
X20724874Y55775126D01*
X20801678Y55890071D01*
X21321540Y55369301D01*
X22570731Y54850591D01*
X23923335Y54849411D01*
X24216668Y54970614D01*
X26390900Y54970614D01*
X26661136Y54916861D01*
X26820731Y54850591D01*
X26995060Y54850439D01*
X27500000Y54750000D01*
X49250000Y54750000D01*
X50589392Y55016422D01*
X51724874Y55775126D01*
X55843656Y59893908D01*
X56871678Y60318678D01*
X57927614Y61372773D01*
X58398695Y62507264D01*
X58998911Y62507264D01*
X59568678Y61128322D01*
X60622773Y60072386D01*
X62000719Y59500213D01*
X63492736Y59498911D01*
X64871678Y60068678D01*
X65927614Y61122773D01*
X66499787Y62500719D01*
X66501089Y63992736D01*
X65931322Y65371678D01*
X64877227Y66427614D01*
X63499281Y66999787D01*
X62007264Y67001089D01*
X60628322Y66431322D01*
X59572386Y65377227D01*
X59000213Y63999281D01*
X58998911Y62507264D01*
X58398695Y62507264D01*
X58499787Y62750719D01*
X58501089Y64242736D01*
X57931322Y65621678D01*
X56877227Y66677614D01*
X55499281Y67249787D01*
X54007264Y67251089D01*
X52628322Y66681322D01*
X51572386Y65627227D01*
X51497760Y65447508D01*
X47800252Y61750000D01*
X46834252Y61750000D01*
X47249787Y62750719D01*
X47251089Y64242736D01*
X46681322Y65621678D01*
X45627227Y66677614D01*
X44249281Y67249787D01*
X42757264Y67251089D01*
X41378322Y66681322D01*
X40322386Y65627227D01*
X39750213Y64249281D01*
X39748911Y62757264D01*
X40165104Y61750000D01*
X38334252Y61750000D01*
X38749787Y62750719D01*
X38751089Y64242736D01*
X38181322Y65621678D01*
X37127227Y66677614D01*
X35749281Y67249787D01*
X34257264Y67251089D01*
X32878322Y66681322D01*
X31822386Y65627227D01*
X31250213Y64249281D01*
X31248911Y62757264D01*
X31665104Y61750000D01*
X27500000Y61750000D01*
X26999470Y61650438D01*
X26826665Y61650589D01*
X26665549Y61584017D01*
X26390900Y61529386D01*
X24218316Y61529386D01*
X23929269Y61649409D01*
X22576665Y61650589D01*
X21326571Y61134060D01*
X20801616Y60610021D01*
X20724874Y60724874D01*
X20300543Y61008403D01*
X20178460Y61130699D01*
X20017461Y61197552D01*
X19589392Y61483578D01*
X19088864Y61583139D01*
X18929269Y61649409D01*
X18754940Y61649561D01*
X18250000Y61750000D01*
X15006833Y61750000D01*
X13750000Y62000000D01*
X7600835Y62000000D01*
X6999281Y62249787D01*
X5507264Y62251089D01*
X4128322Y61681322D01*
X3072386Y60627227D01*
X2500213Y59249281D01*
X2498911Y57757264D01*
X1575000Y57757264D01*
X1575000Y70925000D01*
X4461245Y70925000D01*
X3746285Y70629585D01*
G36*
X58966955Y3937428D02*
X59130000Y3774098D01*
X59130000Y3208427D01*
X58921572Y3000000D01*
X56967500Y3000000D01*
X57492572Y3216955D01*
X58210524Y3933655D01*
X58590455Y4848630D01*
X58966955Y3937428D01*
X58966955Y3937428D01*
G37*
X58966955Y3937428D02*
X59130000Y3774098D01*
X59130000Y3208427D01*
X58921572Y3000000D01*
X56967500Y3000000D01*
X57492572Y3216955D01*
X58210524Y3933655D01*
X58590455Y4848630D01*
X58966955Y3937428D01*
M02*
