G04 #@! TF.FileFunction,Copper,L1,Top,Signal*
%FSLAX46Y46*%
G04 Gerber Fmt 4.6, Leading zero omitted, Abs format (unit mm)*
G04 Created by KiCad (PCBNEW 4.0.6) date Tuesday, 04 April 2023 'PMt' 16:51:39*
%MOMM*%
%LPD*%
G01*
G04 APERTURE LIST*
%ADD10C,0.100000*%
%ADD11C,0.500000*%
%ADD12C,0.750000*%
%ADD13C,0.625000*%
%ADD14R,1.500000X1.250000*%
%ADD15R,1.198880X1.198880*%
%ADD16R,0.800000X0.900000*%
%ADD17C,3.800000*%
%ADD18R,3.000000X3.500000*%
%ADD19O,1.600000X2.300000*%
%ADD20R,0.900000X0.800000*%
%ADD21R,1.300000X1.500000*%
%ADD22R,1.500000X1.300000*%
%ADD23C,1.998980*%
%ADD24C,2.100000*%
%ADD25O,1.699260X3.500120*%
%ADD26C,4.500880*%
%ADD27C,1.000000*%
%ADD28C,4.000000*%
%ADD29C,2.000000*%
G04 APERTURE END LIST*
D10*
D11*
X53357143Y69035714D02*
X55642857Y69035714D01*
X54500000Y67892857D02*
X54500000Y70178571D01*
X33857143Y69535714D02*
X36142857Y69535714D01*
X35000000Y68392857D02*
X35000000Y70678571D01*
D12*
X43714286Y68107143D02*
X43714286Y70392857D01*
X62785714Y70392857D02*
X62785714Y68107143D01*
D11*
X69059524Y58726190D02*
X69154762Y59011905D01*
X69154762Y59488095D01*
X69059524Y59678571D01*
X68964286Y59773809D01*
X68773810Y59869048D01*
X68583333Y59869048D01*
X68392857Y59773809D01*
X68297619Y59678571D01*
X68202381Y59488095D01*
X68107143Y59107143D01*
X68011905Y58916667D01*
X67916667Y58821428D01*
X67726190Y58726190D01*
X67535714Y58726190D01*
X67345238Y58821428D01*
X67250000Y58916667D01*
X67154762Y59107143D01*
X67154762Y59583333D01*
X67250000Y59869048D01*
X69154762Y61011905D02*
X69059524Y60821429D01*
X68964286Y60726190D01*
X68773810Y60630952D01*
X68202381Y60630952D01*
X68011905Y60726190D01*
X67916667Y60821429D01*
X67821429Y61011905D01*
X67821429Y61297619D01*
X67916667Y61488095D01*
X68011905Y61583333D01*
X68202381Y61678571D01*
X68773810Y61678571D01*
X68964286Y61583333D01*
X69059524Y61488095D01*
X69154762Y61297619D01*
X69154762Y61011905D01*
X69154762Y62821429D02*
X69059524Y62630953D01*
X68869048Y62535714D01*
X67154762Y62535714D01*
X69154762Y64440476D02*
X68107143Y64440476D01*
X67916667Y64345238D01*
X67821429Y64154762D01*
X67821429Y63773810D01*
X67916667Y63583333D01*
X69059524Y64440476D02*
X69154762Y64250000D01*
X69154762Y63773810D01*
X69059524Y63583333D01*
X68869048Y63488095D01*
X68678571Y63488095D01*
X68488095Y63583333D01*
X68392857Y63773810D01*
X68392857Y64250000D01*
X68297619Y64440476D01*
X69154762Y65392857D02*
X67821429Y65392857D01*
X68202381Y65392857D02*
X68011905Y65488096D01*
X67916667Y65583334D01*
X67821429Y65773810D01*
X67821429Y65964286D01*
X30654762Y62833333D02*
X28654762Y62833333D01*
X28654762Y63595238D01*
X28750000Y63785714D01*
X28845238Y63880953D01*
X29035714Y63976191D01*
X29321429Y63976191D01*
X29511905Y63880953D01*
X29607143Y63785714D01*
X29702381Y63595238D01*
X29702381Y62833333D01*
X29321429Y65690476D02*
X30654762Y65690476D01*
X29321429Y64833333D02*
X30369048Y64833333D01*
X30559524Y64928572D01*
X30654762Y65119048D01*
X30654762Y65404762D01*
X30559524Y65595238D01*
X30464286Y65690476D01*
X30654762Y66642857D02*
X29321429Y66642857D01*
X29511905Y66642857D02*
X29416667Y66738096D01*
X29321429Y66928572D01*
X29321429Y67214286D01*
X29416667Y67404762D01*
X29607143Y67500000D01*
X30654762Y67500000D01*
X29607143Y67500000D02*
X29416667Y67595238D01*
X29321429Y67785715D01*
X29321429Y68071429D01*
X29416667Y68261905D01*
X29607143Y68357143D01*
X30654762Y68357143D01*
X29321429Y69309524D02*
X31321429Y69309524D01*
X29416667Y69309524D02*
X29321429Y69500001D01*
X29321429Y69880953D01*
X29416667Y70071429D01*
X29511905Y70166667D01*
X29702381Y70261905D01*
X30273810Y70261905D01*
X30464286Y70166667D01*
X30559524Y70071429D01*
X30654762Y69880953D01*
X30654762Y69500001D01*
X30559524Y69309524D01*
D13*
X2892857Y57011905D02*
X3011905Y56892857D01*
X3130952Y56535714D01*
X3130952Y56297619D01*
X3011905Y55940476D01*
X2773810Y55702381D01*
X2535714Y55583333D01*
X2059524Y55464285D01*
X1702381Y55464285D01*
X1226190Y55583333D01*
X988095Y55702381D01*
X750000Y55940476D01*
X630952Y56297619D01*
X630952Y56535714D01*
X750000Y56892857D01*
X869048Y57011905D01*
X3130952Y58083333D02*
X630952Y58083333D01*
X3130952Y59154762D02*
X1821429Y59154762D01*
X1583333Y59035714D01*
X1464286Y58797619D01*
X1464286Y58440476D01*
X1583333Y58202381D01*
X1702381Y58083333D01*
X1464286Y61416667D02*
X3488095Y61416667D01*
X3726190Y61297619D01*
X3845238Y61178571D01*
X3964286Y60940476D01*
X3964286Y60583333D01*
X3845238Y60345238D01*
X3011905Y61416667D02*
X3130952Y61178571D01*
X3130952Y60702381D01*
X3011905Y60464286D01*
X2892857Y60345238D01*
X2654762Y60226190D01*
X1940476Y60226190D01*
X1702381Y60345238D01*
X1583333Y60464286D01*
X1464286Y60702381D01*
X1464286Y61178571D01*
X1583333Y61416667D01*
D11*
X1107143Y51285714D02*
X3392857Y51285714D01*
X2250000Y50142857D02*
X2250000Y52428571D01*
D12*
X1714286Y42857143D02*
X1714286Y45142857D01*
D14*
X21500000Y38250000D03*
X19000000Y38250000D03*
X11750000Y38250000D03*
X14250000Y38250000D03*
D15*
X41030980Y29510000D03*
X43129020Y29510000D03*
D16*
X36119600Y53665400D03*
X34019600Y53665400D03*
D15*
X63200980Y26750000D03*
X65299020Y26750000D03*
D16*
X57684200Y53944800D03*
X55584200Y53944800D03*
D17*
X14000000Y58250000D03*
X18250000Y58250000D03*
X23250000Y58250000D03*
X27500000Y58250000D03*
D18*
X25400000Y58250000D03*
X16100000Y58250000D03*
D17*
X14500000Y51000000D03*
X18750000Y51000000D03*
X23750000Y51000000D03*
X28000000Y51000000D03*
D18*
X25900000Y51000000D03*
X16600000Y51000000D03*
D19*
X34460000Y28875000D03*
X37000000Y28875000D03*
X37000000Y36495000D03*
X34460000Y36495000D03*
X56685000Y28875000D03*
X59225000Y28875000D03*
X59225000Y36495000D03*
X56685000Y36495000D03*
D20*
X43080000Y37450000D03*
X43080000Y39350000D03*
X41080000Y38400000D03*
X64500000Y39050000D03*
X64500000Y40950000D03*
X62500000Y40000000D03*
D21*
X19250000Y26900000D03*
X19250000Y29600000D03*
X16750000Y29600000D03*
X16750000Y26900000D03*
X53250000Y36650000D03*
X53250000Y39350000D03*
X51000000Y39350000D03*
X51000000Y36650000D03*
D22*
X40730000Y32050000D03*
X43430000Y32050000D03*
D21*
X52750000Y30100000D03*
X52750000Y27400000D03*
D22*
X40730000Y34590000D03*
X43430000Y34590000D03*
X39416800Y45054800D03*
X36716800Y45054800D03*
X62900000Y29000000D03*
X65600000Y29000000D03*
X62650000Y36500000D03*
X65350000Y36500000D03*
X61286200Y44623000D03*
X58586200Y44623000D03*
D23*
X48201400Y48880040D03*
X48201400Y53881300D03*
D24*
X50970000Y5380000D03*
X56050000Y5380000D03*
X56050000Y20620000D03*
X48430000Y20620000D03*
X45890000Y20620000D03*
X43350000Y20620000D03*
X61130000Y5380000D03*
X58590000Y5380000D03*
X53510000Y5380000D03*
X48430000Y5380000D03*
X45890000Y5380000D03*
X43350000Y5380000D03*
X40810000Y5380000D03*
X38270000Y5380000D03*
X35730000Y5380000D03*
X33190000Y5380000D03*
X61130000Y20620000D03*
X58590000Y20620000D03*
X50970000Y20620000D03*
X40810000Y20620000D03*
X38270000Y20620000D03*
X35730000Y20620000D03*
X33190000Y20620000D03*
X33190000Y7920000D03*
X33190000Y10460000D03*
X33190000Y13000000D03*
X52240000Y7920000D03*
X49700000Y7920000D03*
X53510000Y20620000D03*
D25*
X38244600Y49372800D03*
X40784600Y49372800D03*
X35704600Y49372800D03*
X59860000Y49245800D03*
X62400000Y49245800D03*
X57320000Y49245800D03*
X16750000Y33500000D03*
X19290000Y33500000D03*
X14210000Y33500000D03*
D26*
X35000000Y63500000D03*
X43500000Y63500000D03*
X7000000Y14750000D03*
X6750000Y24000000D03*
X6250000Y58500000D03*
X6500000Y51250000D03*
X6500000Y43750000D03*
X54750000Y63500000D03*
X62750000Y63250000D03*
D22*
X18850000Y18500000D03*
X16150000Y18500000D03*
X16150000Y22250000D03*
X18850000Y22250000D03*
X18850000Y14750000D03*
X16150000Y14750000D03*
D27*
X35730000Y20620000D02*
X35730000Y21270000D01*
X38270000Y20620000D02*
X38270000Y21230000D01*
D28*
X35000000Y63500000D02*
X35000000Y58000000D01*
D27*
X25900000Y51000000D02*
X23750000Y51000000D01*
X35000000Y58000000D02*
X34019600Y57019600D01*
X34019600Y57019600D02*
X34019600Y53665400D01*
X23750000Y51000000D02*
X23750000Y48500000D01*
X21500000Y46250000D02*
X21500000Y38250000D01*
X23750000Y48500000D02*
X21500000Y46250000D01*
D28*
X28000000Y51000000D02*
X23750000Y51000000D01*
X35000000Y58000000D02*
X28000000Y51000000D01*
D27*
X19250000Y29600000D02*
X19250000Y33460000D01*
X19250000Y33460000D02*
X19290000Y33500000D01*
X21500000Y38250000D02*
X31539000Y38250000D01*
X31539000Y37638000D02*
X31539000Y38250000D01*
X32682000Y36495000D02*
X31539000Y37638000D01*
X34460000Y36495000D02*
X32682000Y36495000D01*
X21500000Y38250000D02*
X21500000Y34000000D01*
X21500000Y34000000D02*
X21000000Y33500000D01*
X21000000Y33500000D02*
X19290000Y33500000D01*
X34460000Y36495000D02*
X34460000Y38400000D01*
X40675002Y38804998D02*
X41080000Y38400000D01*
X34864998Y38804998D02*
X40675002Y38804998D01*
X34460000Y38400000D02*
X34864998Y38804998D01*
X41080000Y38400000D02*
X40810000Y38400000D01*
X41030980Y29510000D02*
X41030980Y27104620D01*
X48430000Y22652000D02*
X48430000Y20620000D01*
X46702800Y24379200D02*
X48430000Y22652000D01*
X43756400Y24379200D02*
X46702800Y24379200D01*
X41030980Y27104620D02*
X43756400Y24379200D01*
X43430000Y32050000D02*
X43430000Y29810980D01*
X43430000Y29810980D02*
X43129020Y29510000D01*
D28*
X40349000Y55388800D02*
X40638800Y55388800D01*
X43500000Y58250000D02*
X43500000Y63500000D01*
X40638800Y55388800D02*
X43500000Y58250000D01*
X40349000Y55388800D02*
X38244600Y53284400D01*
D29*
X38244600Y49372800D02*
X38244600Y53284400D01*
X38244600Y53284400D02*
X40349000Y55388800D01*
D27*
X37863600Y53665400D02*
X37863600Y49753800D01*
X37863600Y49753800D02*
X38244600Y49372800D01*
X36119600Y53665400D02*
X37863600Y53665400D01*
X63200980Y26750000D02*
X63200980Y25700980D01*
X61066400Y23566400D02*
X51732000Y23566400D01*
X51732000Y23566400D02*
X50970000Y22804400D01*
X50970000Y22804400D02*
X50970000Y20620000D01*
X63200980Y25700980D02*
X61066400Y23566400D01*
X65600000Y29000000D02*
X65600000Y27050980D01*
X65600000Y27050980D02*
X65299020Y26750000D01*
D28*
X62320000Y55871400D02*
X62320000Y62820000D01*
X62320000Y62820000D02*
X62750000Y63250000D01*
X62320000Y55871400D02*
X59860000Y53411400D01*
D29*
X59860000Y49245800D02*
X59860000Y53411400D01*
X59860000Y53411400D02*
X62320000Y55871400D01*
D27*
X57684200Y53944800D02*
X60393400Y53944800D01*
X60393400Y53944800D02*
X62320000Y55871400D01*
X57684200Y53944800D02*
X59098000Y53944800D01*
X59860000Y53182800D02*
X59860000Y49245800D01*
X59098000Y53944800D02*
X59860000Y53182800D01*
X25400000Y58250000D02*
X27500000Y58250000D01*
X54750000Y63500000D02*
X54750000Y54779000D01*
X54750000Y54779000D02*
X55584200Y53944800D01*
D28*
X23250000Y58250000D02*
X27500000Y58250000D01*
D27*
X53250000Y39350000D02*
X53250000Y52846600D01*
X53250000Y52846600D02*
X54348200Y53944800D01*
X54348200Y53944800D02*
X55584200Y53944800D01*
X56685000Y36495000D02*
X56685000Y39065000D01*
X56400000Y39350000D02*
X53250000Y39350000D01*
X56685000Y39065000D02*
X56400000Y39350000D01*
X62500000Y40000000D02*
X58250000Y40000000D01*
X56685000Y38435000D02*
X56685000Y36495000D01*
X58250000Y40000000D02*
X56685000Y38435000D01*
X16100000Y58250000D02*
X14000000Y58250000D01*
D28*
X13750000Y58500000D02*
X14000000Y58250000D01*
D27*
X16600000Y51000000D02*
X18750000Y51000000D01*
D28*
X6750000Y51000000D02*
X6500000Y51250000D01*
D27*
X40730000Y32050000D02*
X38905000Y32050000D01*
X37000000Y30145000D02*
X37000000Y28875000D01*
X38905000Y32050000D02*
X37000000Y30145000D01*
X40730000Y34590000D02*
X38270000Y34590000D01*
X38270000Y34590000D02*
X37000000Y35860000D01*
X37000000Y35860000D02*
X37000000Y36495000D01*
X59225000Y28875000D02*
X62775000Y28875000D01*
X62775000Y28875000D02*
X62900000Y29000000D01*
X62650000Y36500000D02*
X59230000Y36500000D01*
X59230000Y36500000D02*
X59225000Y36495000D01*
X43430000Y34590000D02*
X43430000Y37100000D01*
X43430000Y37100000D02*
X43080000Y37450000D01*
X39416800Y45054800D02*
X39416800Y45414200D01*
X39416800Y45414200D02*
X40784600Y46782000D01*
X40784600Y46782000D02*
X40784600Y49372800D01*
X43080000Y39350000D02*
X43080000Y47077400D01*
X43080000Y47077400D02*
X40784600Y49372800D01*
X65350000Y36500000D02*
X65350000Y38200000D01*
X65350000Y38200000D02*
X64500000Y39050000D01*
X64500000Y40950000D02*
X64500000Y42500000D01*
X62377000Y44623000D02*
X61286200Y44623000D01*
X64500000Y42500000D02*
X62377000Y44623000D01*
X61286200Y44623000D02*
X61286200Y45058600D01*
X61286200Y45058600D02*
X62400000Y46172400D01*
X62400000Y46172400D02*
X62400000Y49245800D01*
X16750000Y29600000D02*
X14600000Y29600000D01*
X14000000Y24400000D02*
X16150000Y22250000D01*
X14000000Y29000000D02*
X14000000Y24400000D01*
X14600000Y29600000D02*
X14000000Y29000000D01*
X6500000Y43750000D02*
X14750000Y43750000D01*
X16750000Y41750000D02*
X16750000Y38000000D01*
X14750000Y43750000D02*
X16750000Y41750000D01*
X16750000Y29600000D02*
X16750000Y33500000D01*
X51000000Y39350000D02*
X51000000Y52750000D01*
X49868700Y53881300D02*
X48201400Y53881300D01*
X51000000Y52750000D02*
X49868700Y53881300D01*
X57320000Y49245800D02*
X57320000Y45889200D01*
X57320000Y45889200D02*
X58586200Y44623000D01*
X16750000Y38000000D02*
X14500000Y38000000D01*
X14500000Y38000000D02*
X14250000Y38250000D01*
X16750000Y33500000D02*
X16750000Y38000000D01*
X17000000Y38250000D02*
X19000000Y38250000D01*
X16750000Y38000000D02*
X17000000Y38250000D01*
X35704600Y49372800D02*
X35704600Y46067000D01*
X35704600Y46067000D02*
X36716800Y45054800D01*
X19250000Y26900000D02*
X19350000Y26900000D01*
X19350000Y26900000D02*
X28500000Y17750000D01*
X43250000Y15500000D02*
X43250000Y5480000D01*
X41000000Y17750000D02*
X43250000Y15500000D01*
X28500000Y17750000D02*
X41000000Y17750000D01*
X43250000Y5480000D02*
X43350000Y5380000D01*
X16750000Y26900000D02*
X19250000Y26900000D01*
X48430000Y5380000D02*
X48430000Y5960002D01*
X48430000Y5960002D02*
X47390002Y7000000D01*
X47390002Y7000000D02*
X47390002Y15018678D01*
X47390002Y15018678D02*
X48871322Y16499998D01*
X48871322Y16499998D02*
X64371322Y16499998D01*
X64371322Y16499998D02*
X69500002Y21628678D01*
X69500002Y21628678D02*
X69500002Y30621322D01*
X69500002Y30621322D02*
X66871322Y33250002D01*
X66871322Y33250002D02*
X56249998Y33250002D01*
X56249998Y33250002D02*
X53250000Y36250000D01*
X53250000Y36650000D02*
X53250000Y36250000D01*
X53250000Y36650000D02*
X51000000Y36650000D01*
X45890000Y5380000D02*
X45890000Y15640000D01*
X68000000Y30000000D02*
X66250000Y31750000D01*
X68000000Y22250000D02*
X68000000Y30000000D01*
X63750000Y18000000D02*
X68000000Y22250000D01*
X48250000Y18000000D02*
X63750000Y18000000D01*
X45890000Y15640000D02*
X48250000Y18000000D01*
X52750000Y30100000D02*
X53600000Y30100000D01*
X55250000Y31750000D02*
X66250000Y31750000D01*
X53600000Y30100000D02*
X55250000Y31750000D01*
X52750000Y30100000D02*
X51400000Y30100000D01*
X51400000Y30100000D02*
X48201400Y33298600D01*
X48201400Y48880040D02*
X48201400Y33298600D01*
X11750000Y38250000D02*
X11750000Y35000000D01*
X13250000Y33500000D02*
X14210000Y33500000D01*
X11750000Y35000000D02*
X13250000Y33500000D01*
X52750000Y27400000D02*
X55600000Y27400000D01*
X55600000Y27400000D02*
X56685000Y28485000D01*
X56685000Y28485000D02*
X56685000Y28875000D01*
X7000000Y14750000D02*
X16150000Y14750000D01*
X16150000Y18500000D02*
X12000000Y18500000D01*
X12000000Y18500000D02*
X6750000Y23750000D01*
X6750000Y23750000D02*
X6750000Y24000000D01*
X18850000Y18500000D02*
X21250000Y18500000D01*
X29290000Y10460000D02*
X33190000Y10460000D01*
X21250000Y18500000D02*
X29290000Y10460000D01*
X18850000Y18500000D02*
X18850000Y22250000D01*
X33190000Y7920000D02*
X28580000Y7920000D01*
X21750000Y14750000D02*
X18850000Y14750000D01*
X28580000Y7920000D02*
X21750000Y14750000D01*
G36*
X3746285Y70629585D02*
X2873480Y69758302D01*
X2400539Y68619333D01*
X2399463Y67386077D01*
X2870415Y66246285D01*
X3741698Y65373480D01*
X4880667Y64900539D01*
X6113923Y64899463D01*
X7253715Y65370415D01*
X8126520Y66241698D01*
X8599461Y67380667D01*
X8600537Y68613923D01*
X8129585Y69753715D01*
X7258302Y70626520D01*
X6539482Y70925000D01*
X26600000Y70925000D01*
X26600000Y61750000D01*
X23250000Y61750000D01*
X22749470Y61650438D01*
X22576665Y61650589D01*
X22415549Y61584017D01*
X21910608Y61483578D01*
X21486276Y61200049D01*
X21326571Y61134060D01*
X21203198Y61010902D01*
X20775126Y60724874D01*
X20698322Y60609929D01*
X20178460Y61130699D01*
X18929269Y61649409D01*
X17576665Y61650589D01*
X17283332Y61529386D01*
X15394987Y61529386D01*
X15089392Y61733578D01*
X13750000Y62000000D01*
X12410608Y61733578D01*
X11275126Y60974874D01*
X10516422Y59839392D01*
X10250000Y58500000D01*
X10516422Y57160608D01*
X11275126Y56025126D01*
X11525126Y55775127D01*
X11949455Y55491599D01*
X12071540Y55369301D01*
X12232540Y55302448D01*
X12660608Y55016422D01*
X13161136Y54916861D01*
X13320731Y54850591D01*
X13495060Y54850439D01*
X14000000Y54750000D01*
X14500530Y54849562D01*
X14673335Y54849411D01*
X14834452Y54915983D01*
X15109099Y54970614D01*
X17281684Y54970614D01*
X17570731Y54850591D01*
X18923335Y54849411D01*
X20173429Y55365940D01*
X20698384Y55889979D01*
X20775126Y55775126D01*
X21199457Y55491597D01*
X21321540Y55369301D01*
X21482539Y55302448D01*
X21910608Y55016422D01*
X22411136Y54916861D01*
X22570731Y54850591D01*
X22745060Y54850439D01*
X23250000Y54750000D01*
X26800252Y54750000D01*
X26550252Y54500000D01*
X23750000Y54500000D01*
X23249470Y54400438D01*
X23076665Y54400589D01*
X22915549Y54334017D01*
X22410608Y54233578D01*
X21986276Y53950049D01*
X21826571Y53884060D01*
X21703198Y53760902D01*
X21275126Y53474874D01*
X21198322Y53359929D01*
X20678460Y53880699D01*
X19429269Y54399409D01*
X18076665Y54400589D01*
X17783332Y54279386D01*
X15468316Y54279386D01*
X15179269Y54399409D01*
X13826665Y54400589D01*
X12576571Y53884060D01*
X11619301Y52928460D01*
X11100591Y51679269D01*
X11099411Y50326665D01*
X11615940Y49076571D01*
X12571540Y48119301D01*
X13820731Y47600591D01*
X15173335Y47599411D01*
X15466668Y47720614D01*
X17781684Y47720614D01*
X18070731Y47600591D01*
X19423335Y47599411D01*
X20441808Y48020236D01*
X20085786Y47664214D01*
X19652241Y47015367D01*
X19499999Y46250000D01*
X19500000Y46249995D01*
X19500000Y39702563D01*
X19341108Y39470017D01*
X19220614Y38875000D01*
X19220614Y37625000D01*
X19325207Y37069133D01*
X19500000Y36797497D01*
X19500000Y36771960D01*
X19290000Y36813732D01*
X18390836Y36634877D01*
X17628561Y36125541D01*
X17119225Y35363266D01*
X16940370Y34464102D01*
X16940370Y32535898D01*
X17119225Y31636734D01*
X17250000Y31441015D01*
X17250000Y31031208D01*
X17191108Y30945017D01*
X17070614Y30350000D01*
X17070614Y29179386D01*
X16100000Y29179386D01*
X15544133Y29074793D01*
X15033604Y28746276D01*
X14691108Y28245017D01*
X14570614Y27650000D01*
X14570614Y26150000D01*
X14675207Y25594133D01*
X15003724Y25083604D01*
X15504983Y24741108D01*
X16100000Y24620614D01*
X17400000Y24620614D01*
X17955867Y24725207D01*
X17993146Y24749196D01*
X18004983Y24741108D01*
X18600000Y24620614D01*
X18800958Y24620614D01*
X18992186Y24429386D01*
X18100000Y24429386D01*
X17544133Y24324793D01*
X17033604Y23996276D01*
X16691108Y23495017D01*
X16570614Y22900000D01*
X16570614Y21600000D01*
X16675207Y21044133D01*
X16850000Y20772497D01*
X16850000Y20679386D01*
X15400000Y20679386D01*
X14844133Y20574793D01*
X14727902Y20500000D01*
X12828427Y20500000D01*
X10375947Y22952480D01*
X10499787Y23250719D01*
X10501089Y24742736D01*
X9931322Y26121678D01*
X8877227Y27177614D01*
X7499281Y27749787D01*
X6007264Y27751089D01*
X4628322Y27181322D01*
X3572386Y26127227D01*
X3000213Y24749281D01*
X2998911Y23257264D01*
X3568678Y21878322D01*
X4622773Y20822386D01*
X6000719Y20250213D01*
X7422600Y20248972D01*
X10585784Y17085789D01*
X10585786Y17085786D01*
X11082753Y16753724D01*
X11088326Y16750000D01*
X10231598Y16750000D01*
X10181322Y16871678D01*
X9127227Y17927614D01*
X7749281Y18499787D01*
X6257264Y18501089D01*
X4878322Y17931322D01*
X3822386Y16877227D01*
X3250213Y15499281D01*
X3248911Y14007264D01*
X3818678Y12628322D01*
X4872773Y11572386D01*
X6250719Y11000213D01*
X7742736Y10998911D01*
X9121678Y11568678D01*
X10177614Y12622773D01*
X10230443Y12750000D01*
X14718792Y12750000D01*
X14804983Y12691108D01*
X15400000Y12570614D01*
X16900000Y12570614D01*
X17455867Y12675207D01*
X17493146Y12699196D01*
X17504983Y12691108D01*
X18100000Y12570614D01*
X19600000Y12570614D01*
X20155867Y12675207D01*
X20272098Y12750000D01*
X20921572Y12750000D01*
X27165784Y6505789D01*
X27165786Y6505786D01*
X27814633Y6072241D01*
X27941616Y6046982D01*
X28580000Y5919999D01*
X28580005Y5920000D01*
X30653129Y5920000D01*
X30640444Y5889452D01*
X30639559Y4874999D01*
X31026955Y3937428D01*
X31743655Y3219476D01*
X32680548Y2830444D01*
X33695001Y2829559D01*
X34460726Y3145950D01*
X35220548Y2830444D01*
X36235001Y2829559D01*
X37000726Y3145950D01*
X37760548Y2830444D01*
X38775001Y2829559D01*
X39540726Y3145950D01*
X40300548Y2830444D01*
X41315001Y2829559D01*
X42080726Y3145950D01*
X42840548Y2830444D01*
X43855001Y2829559D01*
X44620726Y3145950D01*
X45380548Y2830444D01*
X46395001Y2829559D01*
X47160726Y3145950D01*
X47920548Y2830444D01*
X48935001Y2829559D01*
X49700726Y3145950D01*
X50460548Y2830444D01*
X51475001Y2829559D01*
X52240726Y3145950D01*
X53000548Y2830444D01*
X54015001Y2829559D01*
X54780726Y3145950D01*
X55540548Y2830444D01*
X56555001Y2829559D01*
X57492572Y3216955D01*
X58210524Y3933655D01*
X58590455Y4848630D01*
X58966955Y3937428D01*
X59683655Y3219476D01*
X60620548Y2830444D01*
X61635001Y2829559D01*
X62572572Y3216955D01*
X63290524Y3933655D01*
X63679556Y4870548D01*
X63680441Y5885001D01*
X63293045Y6822572D01*
X62576345Y7540524D01*
X61639452Y7929556D01*
X60624999Y7930441D01*
X59687428Y7543045D01*
X58969476Y6826345D01*
X58589545Y5911370D01*
X58213045Y6822572D01*
X57496345Y7540524D01*
X56559452Y7929556D01*
X55544999Y7930441D01*
X54789737Y7618374D01*
X54790441Y8425001D01*
X54403045Y9362572D01*
X53686345Y10080524D01*
X52749452Y10469556D01*
X51734999Y10470441D01*
X50969274Y10154050D01*
X50209452Y10469556D01*
X49390002Y10470271D01*
X49390002Y14190250D01*
X49699749Y14499998D01*
X64371317Y14499998D01*
X64371322Y14499997D01*
X65136689Y14652239D01*
X65785536Y15085784D01*
X70914213Y20214462D01*
X70914216Y20214464D01*
X71347761Y20863311D01*
X71500003Y21628678D01*
X71500002Y21628683D01*
X71500002Y30621317D01*
X71500003Y30621322D01*
X71347761Y31386689D01*
X71327911Y31416396D01*
X70914216Y32035536D01*
X70914213Y32035538D01*
X68285536Y34664216D01*
X67636689Y35097761D01*
X67429611Y35138952D01*
X67508892Y35254983D01*
X67629386Y35850000D01*
X67629386Y37150000D01*
X67524793Y37705867D01*
X67350000Y37977503D01*
X67350000Y38199995D01*
X67350001Y38200000D01*
X67197759Y38965366D01*
X67197759Y38965367D01*
X66764214Y39614214D01*
X66764211Y39614216D01*
X66375310Y40003117D01*
X66374793Y40005867D01*
X66370536Y40012483D01*
X66479386Y40550000D01*
X66479386Y40846366D01*
X66500000Y40950000D01*
X66500000Y42500000D01*
X66347759Y43265367D01*
X65914214Y43914214D01*
X65914211Y43914216D01*
X64276567Y45551861D01*
X64400001Y46172400D01*
X64400000Y46172405D01*
X64400000Y47126951D01*
X64570775Y47382534D01*
X64749630Y48281698D01*
X64749630Y50209902D01*
X64570775Y51109066D01*
X64061439Y51871341D01*
X63586819Y52188472D01*
X64794871Y53396524D01*
X64794874Y53396526D01*
X65553578Y54532008D01*
X65820000Y55871400D01*
X65820000Y56845238D01*
X71600000Y56845238D01*
X71600000Y66965660D01*
X71876520Y67241698D01*
X71925000Y67358451D01*
X71925000Y1575000D01*
X70459094Y1575000D01*
X70876520Y1991698D01*
X71349461Y3130667D01*
X71350537Y4363923D01*
X70879585Y5503715D01*
X70008302Y6376520D01*
X68869333Y6849461D01*
X67636077Y6850537D01*
X66496285Y6379585D01*
X65623480Y5508302D01*
X65150539Y4369333D01*
X65149463Y3136077D01*
X65620415Y1996285D01*
X66040965Y1575000D01*
X5288755Y1575000D01*
X6003715Y1870415D01*
X6876520Y2741698D01*
X7349461Y3880667D01*
X7350537Y5113923D01*
X6879585Y6253715D01*
X6008302Y7126520D01*
X4869333Y7599461D01*
X3636077Y7600537D01*
X2496285Y7129585D01*
X1623480Y6258302D01*
X1575000Y6141549D01*
X1575000Y38875000D01*
X9470614Y38875000D01*
X9470614Y37625000D01*
X9575207Y37069133D01*
X9750000Y36797497D01*
X9750000Y35000005D01*
X9749999Y35000000D01*
X9902241Y34234633D01*
X10335786Y33585786D01*
X11835784Y32085789D01*
X11835786Y32085786D01*
X11967395Y31997848D01*
X12039225Y31636734D01*
X12548561Y30874459D01*
X13310836Y30365123D01*
X14210000Y30186268D01*
X15109164Y30365123D01*
X15871439Y30874459D01*
X16380775Y31636734D01*
X16559630Y32535898D01*
X16559630Y34464102D01*
X16380775Y35363266D01*
X15871439Y36125541D01*
X15109164Y36634877D01*
X14210000Y36813732D01*
X13750000Y36722232D01*
X13750000Y36797437D01*
X13908892Y37029983D01*
X14029386Y37625000D01*
X14029386Y38875000D01*
X13924793Y39430867D01*
X13596276Y39941396D01*
X13095017Y40283892D01*
X12500000Y40404386D01*
X11000000Y40404386D01*
X10444133Y40299793D01*
X9933604Y39971276D01*
X9591108Y39470017D01*
X9470614Y38875000D01*
X1575000Y38875000D01*
X1575000Y40642857D01*
X5775000Y40642857D01*
X5775000Y47357143D01*
X5607143Y47357143D01*
X5607143Y47559831D01*
X5750719Y47500213D01*
X7242736Y47498911D01*
X7705220Y47690006D01*
X8089391Y47766422D01*
X8412229Y47982135D01*
X8621678Y48068678D01*
X8783479Y48230197D01*
X9224873Y48525127D01*
X9517227Y48962666D01*
X9677614Y49122773D01*
X9765287Y49333914D01*
X9983578Y49660609D01*
X10059562Y50042607D01*
X10249787Y50500719D01*
X10251089Y51992736D01*
X9681322Y53371678D01*
X8627227Y54427614D01*
X7424159Y54927171D01*
X8371678Y55318678D01*
X9427614Y56372773D01*
X9999787Y57750719D01*
X10001089Y59242736D01*
X9431322Y60621678D01*
X8377227Y61677614D01*
X6999281Y62249787D01*
X5812500Y62250823D01*
X5812500Y63511905D01*
X1575000Y63511905D01*
X1575000Y70925000D01*
X4461245Y70925000D01*
X3746285Y70629585D01*
X3746285Y70629585D01*
G37*
X3746285Y70629585D02*
X2873480Y69758302D01*
X2400539Y68619333D01*
X2399463Y67386077D01*
X2870415Y66246285D01*
X3741698Y65373480D01*
X4880667Y64900539D01*
X6113923Y64899463D01*
X7253715Y65370415D01*
X8126520Y66241698D01*
X8599461Y67380667D01*
X8600537Y68613923D01*
X8129585Y69753715D01*
X7258302Y70626520D01*
X6539482Y70925000D01*
X26600000Y70925000D01*
X26600000Y61750000D01*
X23250000Y61750000D01*
X22749470Y61650438D01*
X22576665Y61650589D01*
X22415549Y61584017D01*
X21910608Y61483578D01*
X21486276Y61200049D01*
X21326571Y61134060D01*
X21203198Y61010902D01*
X20775126Y60724874D01*
X20698322Y60609929D01*
X20178460Y61130699D01*
X18929269Y61649409D01*
X17576665Y61650589D01*
X17283332Y61529386D01*
X15394987Y61529386D01*
X15089392Y61733578D01*
X13750000Y62000000D01*
X12410608Y61733578D01*
X11275126Y60974874D01*
X10516422Y59839392D01*
X10250000Y58500000D01*
X10516422Y57160608D01*
X11275126Y56025126D01*
X11525126Y55775127D01*
X11949455Y55491599D01*
X12071540Y55369301D01*
X12232540Y55302448D01*
X12660608Y55016422D01*
X13161136Y54916861D01*
X13320731Y54850591D01*
X13495060Y54850439D01*
X14000000Y54750000D01*
X14500530Y54849562D01*
X14673335Y54849411D01*
X14834452Y54915983D01*
X15109099Y54970614D01*
X17281684Y54970614D01*
X17570731Y54850591D01*
X18923335Y54849411D01*
X20173429Y55365940D01*
X20698384Y55889979D01*
X20775126Y55775126D01*
X21199457Y55491597D01*
X21321540Y55369301D01*
X21482539Y55302448D01*
X21910608Y55016422D01*
X22411136Y54916861D01*
X22570731Y54850591D01*
X22745060Y54850439D01*
X23250000Y54750000D01*
X26800252Y54750000D01*
X26550252Y54500000D01*
X23750000Y54500000D01*
X23249470Y54400438D01*
X23076665Y54400589D01*
X22915549Y54334017D01*
X22410608Y54233578D01*
X21986276Y53950049D01*
X21826571Y53884060D01*
X21703198Y53760902D01*
X21275126Y53474874D01*
X21198322Y53359929D01*
X20678460Y53880699D01*
X19429269Y54399409D01*
X18076665Y54400589D01*
X17783332Y54279386D01*
X15468316Y54279386D01*
X15179269Y54399409D01*
X13826665Y54400589D01*
X12576571Y53884060D01*
X11619301Y52928460D01*
X11100591Y51679269D01*
X11099411Y50326665D01*
X11615940Y49076571D01*
X12571540Y48119301D01*
X13820731Y47600591D01*
X15173335Y47599411D01*
X15466668Y47720614D01*
X17781684Y47720614D01*
X18070731Y47600591D01*
X19423335Y47599411D01*
X20441808Y48020236D01*
X20085786Y47664214D01*
X19652241Y47015367D01*
X19499999Y46250000D01*
X19500000Y46249995D01*
X19500000Y39702563D01*
X19341108Y39470017D01*
X19220614Y38875000D01*
X19220614Y37625000D01*
X19325207Y37069133D01*
X19500000Y36797497D01*
X19500000Y36771960D01*
X19290000Y36813732D01*
X18390836Y36634877D01*
X17628561Y36125541D01*
X17119225Y35363266D01*
X16940370Y34464102D01*
X16940370Y32535898D01*
X17119225Y31636734D01*
X17250000Y31441015D01*
X17250000Y31031208D01*
X17191108Y30945017D01*
X17070614Y30350000D01*
X17070614Y29179386D01*
X16100000Y29179386D01*
X15544133Y29074793D01*
X15033604Y28746276D01*
X14691108Y28245017D01*
X14570614Y27650000D01*
X14570614Y26150000D01*
X14675207Y25594133D01*
X15003724Y25083604D01*
X15504983Y24741108D01*
X16100000Y24620614D01*
X17400000Y24620614D01*
X17955867Y24725207D01*
X17993146Y24749196D01*
X18004983Y24741108D01*
X18600000Y24620614D01*
X18800958Y24620614D01*
X18992186Y24429386D01*
X18100000Y24429386D01*
X17544133Y24324793D01*
X17033604Y23996276D01*
X16691108Y23495017D01*
X16570614Y22900000D01*
X16570614Y21600000D01*
X16675207Y21044133D01*
X16850000Y20772497D01*
X16850000Y20679386D01*
X15400000Y20679386D01*
X14844133Y20574793D01*
X14727902Y20500000D01*
X12828427Y20500000D01*
X10375947Y22952480D01*
X10499787Y23250719D01*
X10501089Y24742736D01*
X9931322Y26121678D01*
X8877227Y27177614D01*
X7499281Y27749787D01*
X6007264Y27751089D01*
X4628322Y27181322D01*
X3572386Y26127227D01*
X3000213Y24749281D01*
X2998911Y23257264D01*
X3568678Y21878322D01*
X4622773Y20822386D01*
X6000719Y20250213D01*
X7422600Y20248972D01*
X10585784Y17085789D01*
X10585786Y17085786D01*
X11082753Y16753724D01*
X11088326Y16750000D01*
X10231598Y16750000D01*
X10181322Y16871678D01*
X9127227Y17927614D01*
X7749281Y18499787D01*
X6257264Y18501089D01*
X4878322Y17931322D01*
X3822386Y16877227D01*
X3250213Y15499281D01*
X3248911Y14007264D01*
X3818678Y12628322D01*
X4872773Y11572386D01*
X6250719Y11000213D01*
X7742736Y10998911D01*
X9121678Y11568678D01*
X10177614Y12622773D01*
X10230443Y12750000D01*
X14718792Y12750000D01*
X14804983Y12691108D01*
X15400000Y12570614D01*
X16900000Y12570614D01*
X17455867Y12675207D01*
X17493146Y12699196D01*
X17504983Y12691108D01*
X18100000Y12570614D01*
X19600000Y12570614D01*
X20155867Y12675207D01*
X20272098Y12750000D01*
X20921572Y12750000D01*
X27165784Y6505789D01*
X27165786Y6505786D01*
X27814633Y6072241D01*
X27941616Y6046982D01*
X28580000Y5919999D01*
X28580005Y5920000D01*
X30653129Y5920000D01*
X30640444Y5889452D01*
X30639559Y4874999D01*
X31026955Y3937428D01*
X31743655Y3219476D01*
X32680548Y2830444D01*
X33695001Y2829559D01*
X34460726Y3145950D01*
X35220548Y2830444D01*
X36235001Y2829559D01*
X37000726Y3145950D01*
X37760548Y2830444D01*
X38775001Y2829559D01*
X39540726Y3145950D01*
X40300548Y2830444D01*
X41315001Y2829559D01*
X42080726Y3145950D01*
X42840548Y2830444D01*
X43855001Y2829559D01*
X44620726Y3145950D01*
X45380548Y2830444D01*
X46395001Y2829559D01*
X47160726Y3145950D01*
X47920548Y2830444D01*
X48935001Y2829559D01*
X49700726Y3145950D01*
X50460548Y2830444D01*
X51475001Y2829559D01*
X52240726Y3145950D01*
X53000548Y2830444D01*
X54015001Y2829559D01*
X54780726Y3145950D01*
X55540548Y2830444D01*
X56555001Y2829559D01*
X57492572Y3216955D01*
X58210524Y3933655D01*
X58590455Y4848630D01*
X58966955Y3937428D01*
X59683655Y3219476D01*
X60620548Y2830444D01*
X61635001Y2829559D01*
X62572572Y3216955D01*
X63290524Y3933655D01*
X63679556Y4870548D01*
X63680441Y5885001D01*
X63293045Y6822572D01*
X62576345Y7540524D01*
X61639452Y7929556D01*
X60624999Y7930441D01*
X59687428Y7543045D01*
X58969476Y6826345D01*
X58589545Y5911370D01*
X58213045Y6822572D01*
X57496345Y7540524D01*
X56559452Y7929556D01*
X55544999Y7930441D01*
X54789737Y7618374D01*
X54790441Y8425001D01*
X54403045Y9362572D01*
X53686345Y10080524D01*
X52749452Y10469556D01*
X51734999Y10470441D01*
X50969274Y10154050D01*
X50209452Y10469556D01*
X49390002Y10470271D01*
X49390002Y14190250D01*
X49699749Y14499998D01*
X64371317Y14499998D01*
X64371322Y14499997D01*
X65136689Y14652239D01*
X65785536Y15085784D01*
X70914213Y20214462D01*
X70914216Y20214464D01*
X71347761Y20863311D01*
X71500003Y21628678D01*
X71500002Y21628683D01*
X71500002Y30621317D01*
X71500003Y30621322D01*
X71347761Y31386689D01*
X71327911Y31416396D01*
X70914216Y32035536D01*
X70914213Y32035538D01*
X68285536Y34664216D01*
X67636689Y35097761D01*
X67429611Y35138952D01*
X67508892Y35254983D01*
X67629386Y35850000D01*
X67629386Y37150000D01*
X67524793Y37705867D01*
X67350000Y37977503D01*
X67350000Y38199995D01*
X67350001Y38200000D01*
X67197759Y38965366D01*
X67197759Y38965367D01*
X66764214Y39614214D01*
X66764211Y39614216D01*
X66375310Y40003117D01*
X66374793Y40005867D01*
X66370536Y40012483D01*
X66479386Y40550000D01*
X66479386Y40846366D01*
X66500000Y40950000D01*
X66500000Y42500000D01*
X66347759Y43265367D01*
X65914214Y43914214D01*
X65914211Y43914216D01*
X64276567Y45551861D01*
X64400001Y46172400D01*
X64400000Y46172405D01*
X64400000Y47126951D01*
X64570775Y47382534D01*
X64749630Y48281698D01*
X64749630Y50209902D01*
X64570775Y51109066D01*
X64061439Y51871341D01*
X63586819Y52188472D01*
X64794871Y53396524D01*
X64794874Y53396526D01*
X65553578Y54532008D01*
X65820000Y55871400D01*
X65820000Y56845238D01*
X71600000Y56845238D01*
X71600000Y66965660D01*
X71876520Y67241698D01*
X71925000Y67358451D01*
X71925000Y1575000D01*
X70459094Y1575000D01*
X70876520Y1991698D01*
X71349461Y3130667D01*
X71350537Y4363923D01*
X70879585Y5503715D01*
X70008302Y6376520D01*
X68869333Y6849461D01*
X67636077Y6850537D01*
X66496285Y6379585D01*
X65623480Y5508302D01*
X65150539Y4369333D01*
X65149463Y3136077D01*
X65620415Y1996285D01*
X66040965Y1575000D01*
X5288755Y1575000D01*
X6003715Y1870415D01*
X6876520Y2741698D01*
X7349461Y3880667D01*
X7350537Y5113923D01*
X6879585Y6253715D01*
X6008302Y7126520D01*
X4869333Y7599461D01*
X3636077Y7600537D01*
X2496285Y7129585D01*
X1623480Y6258302D01*
X1575000Y6141549D01*
X1575000Y38875000D01*
X9470614Y38875000D01*
X9470614Y37625000D01*
X9575207Y37069133D01*
X9750000Y36797497D01*
X9750000Y35000005D01*
X9749999Y35000000D01*
X9902241Y34234633D01*
X10335786Y33585786D01*
X11835784Y32085789D01*
X11835786Y32085786D01*
X11967395Y31997848D01*
X12039225Y31636734D01*
X12548561Y30874459D01*
X13310836Y30365123D01*
X14210000Y30186268D01*
X15109164Y30365123D01*
X15871439Y30874459D01*
X16380775Y31636734D01*
X16559630Y32535898D01*
X16559630Y34464102D01*
X16380775Y35363266D01*
X15871439Y36125541D01*
X15109164Y36634877D01*
X14210000Y36813732D01*
X13750000Y36722232D01*
X13750000Y36797437D01*
X13908892Y37029983D01*
X14029386Y37625000D01*
X14029386Y38875000D01*
X13924793Y39430867D01*
X13596276Y39941396D01*
X13095017Y40283892D01*
X12500000Y40404386D01*
X11000000Y40404386D01*
X10444133Y40299793D01*
X9933604Y39971276D01*
X9591108Y39470017D01*
X9470614Y38875000D01*
X1575000Y38875000D01*
X1575000Y40642857D01*
X5775000Y40642857D01*
X5775000Y47357143D01*
X5607143Y47357143D01*
X5607143Y47559831D01*
X5750719Y47500213D01*
X7242736Y47498911D01*
X7705220Y47690006D01*
X8089391Y47766422D01*
X8412229Y47982135D01*
X8621678Y48068678D01*
X8783479Y48230197D01*
X9224873Y48525127D01*
X9517227Y48962666D01*
X9677614Y49122773D01*
X9765287Y49333914D01*
X9983578Y49660609D01*
X10059562Y50042607D01*
X10249787Y50500719D01*
X10251089Y51992736D01*
X9681322Y53371678D01*
X8627227Y54427614D01*
X7424159Y54927171D01*
X8371678Y55318678D01*
X9427614Y56372773D01*
X9999787Y57750719D01*
X10001089Y59242736D01*
X9431322Y60621678D01*
X8377227Y61677614D01*
X6999281Y62249787D01*
X5812500Y62250823D01*
X5812500Y63511905D01*
X1575000Y63511905D01*
X1575000Y70925000D01*
X4461245Y70925000D01*
X3746285Y70629585D01*
G36*
X51142857Y65100000D02*
X51353462Y65100000D01*
X51000213Y64249281D01*
X50998911Y62757264D01*
X51568678Y61378322D01*
X52622773Y60322386D01*
X52750000Y60269557D01*
X52750000Y55175027D01*
X51835786Y54260814D01*
X51402241Y53611967D01*
X51249999Y52846600D01*
X51250000Y52846595D01*
X51250000Y40781208D01*
X51191108Y40695017D01*
X51070614Y40100000D01*
X51070614Y38929386D01*
X50350000Y38929386D01*
X50201400Y38901425D01*
X50201400Y47344820D01*
X50319129Y47462344D01*
X50700455Y48380679D01*
X50701323Y49375038D01*
X50321600Y50294038D01*
X49619096Y50997769D01*
X48700761Y51379095D01*
X47706402Y51379963D01*
X46787402Y51000240D01*
X46083671Y50297736D01*
X45702345Y49379401D01*
X45701477Y48385042D01*
X46081200Y47466042D01*
X46201400Y47345632D01*
X46201400Y33298605D01*
X46201399Y33298600D01*
X46353641Y32533233D01*
X46787186Y31884386D01*
X49985784Y28685789D01*
X49985786Y28685786D01*
X50596481Y28277734D01*
X50570614Y28150000D01*
X50570614Y26650000D01*
X50675207Y26094133D01*
X51003724Y25583604D01*
X51187435Y25458080D01*
X50966910Y25414214D01*
X50966633Y25414159D01*
X50317786Y24980614D01*
X50317784Y24980611D01*
X49623800Y24286628D01*
X48117014Y25793414D01*
X47468167Y26226959D01*
X46702800Y26379201D01*
X46702795Y26379200D01*
X44584828Y26379200D01*
X43582854Y27381174D01*
X43728460Y27381174D01*
X44284327Y27485767D01*
X44794856Y27814284D01*
X45137352Y28315543D01*
X45257846Y28910560D01*
X45257846Y29015811D01*
X45277759Y29045613D01*
X45430001Y29810980D01*
X45430000Y29810985D01*
X45430000Y30572437D01*
X45588892Y30804983D01*
X45709386Y31400000D01*
X45709386Y32700000D01*
X45604793Y33255867D01*
X45567549Y33313746D01*
X45588892Y33344983D01*
X45709386Y33940000D01*
X45709386Y35240000D01*
X45604793Y35795867D01*
X45430000Y36067503D01*
X45430000Y37099995D01*
X45430001Y37100000D01*
X45277759Y37865367D01*
X45248461Y37909214D01*
X44969761Y38326320D01*
X44954793Y38405867D01*
X44950536Y38412483D01*
X45059386Y38950000D01*
X45059386Y39246366D01*
X45080000Y39350000D01*
X45080000Y47077395D01*
X45080001Y47077400D01*
X44927759Y47842767D01*
X44850371Y47958587D01*
X44494214Y48491614D01*
X44494211Y48491616D01*
X43134230Y49851598D01*
X43134230Y50336902D01*
X42955375Y51236066D01*
X42446039Y51998341D01*
X42123681Y52213733D01*
X42240314Y52330366D01*
X43113674Y52913926D01*
X45974874Y55775126D01*
X46733578Y56910608D01*
X47000000Y58250000D01*
X47000000Y62149165D01*
X47249787Y62750719D01*
X47251089Y64242736D01*
X46681322Y65621678D01*
X46410616Y65892857D01*
X47775000Y65892857D01*
X47775000Y70925000D01*
X51142857Y70925000D01*
X51142857Y65100000D01*
X51142857Y65100000D01*
G37*
X51142857Y65100000D02*
X51353462Y65100000D01*
X51000213Y64249281D01*
X50998911Y62757264D01*
X51568678Y61378322D01*
X52622773Y60322386D01*
X52750000Y60269557D01*
X52750000Y55175027D01*
X51835786Y54260814D01*
X51402241Y53611967D01*
X51249999Y52846600D01*
X51250000Y52846595D01*
X51250000Y40781208D01*
X51191108Y40695017D01*
X51070614Y40100000D01*
X51070614Y38929386D01*
X50350000Y38929386D01*
X50201400Y38901425D01*
X50201400Y47344820D01*
X50319129Y47462344D01*
X50700455Y48380679D01*
X50701323Y49375038D01*
X50321600Y50294038D01*
X49619096Y50997769D01*
X48700761Y51379095D01*
X47706402Y51379963D01*
X46787402Y51000240D01*
X46083671Y50297736D01*
X45702345Y49379401D01*
X45701477Y48385042D01*
X46081200Y47466042D01*
X46201400Y47345632D01*
X46201400Y33298605D01*
X46201399Y33298600D01*
X46353641Y32533233D01*
X46787186Y31884386D01*
X49985784Y28685789D01*
X49985786Y28685786D01*
X50596481Y28277734D01*
X50570614Y28150000D01*
X50570614Y26650000D01*
X50675207Y26094133D01*
X51003724Y25583604D01*
X51187435Y25458080D01*
X50966910Y25414214D01*
X50966633Y25414159D01*
X50317786Y24980614D01*
X50317784Y24980611D01*
X49623800Y24286628D01*
X48117014Y25793414D01*
X47468167Y26226959D01*
X46702800Y26379201D01*
X46702795Y26379200D01*
X44584828Y26379200D01*
X43582854Y27381174D01*
X43728460Y27381174D01*
X44284327Y27485767D01*
X44794856Y27814284D01*
X45137352Y28315543D01*
X45257846Y28910560D01*
X45257846Y29015811D01*
X45277759Y29045613D01*
X45430001Y29810980D01*
X45430000Y29810985D01*
X45430000Y30572437D01*
X45588892Y30804983D01*
X45709386Y31400000D01*
X45709386Y32700000D01*
X45604793Y33255867D01*
X45567549Y33313746D01*
X45588892Y33344983D01*
X45709386Y33940000D01*
X45709386Y35240000D01*
X45604793Y35795867D01*
X45430000Y36067503D01*
X45430000Y37099995D01*
X45430001Y37100000D01*
X45277759Y37865367D01*
X45248461Y37909214D01*
X44969761Y38326320D01*
X44954793Y38405867D01*
X44950536Y38412483D01*
X45059386Y38950000D01*
X45059386Y39246366D01*
X45080000Y39350000D01*
X45080000Y47077395D01*
X45080001Y47077400D01*
X44927759Y47842767D01*
X44850371Y47958587D01*
X44494214Y48491614D01*
X44494211Y48491616D01*
X43134230Y49851598D01*
X43134230Y50336902D01*
X42955375Y51236066D01*
X42446039Y51998341D01*
X42123681Y52213733D01*
X42240314Y52330366D01*
X43113674Y52913926D01*
X45974874Y55775126D01*
X46733578Y56910608D01*
X47000000Y58250000D01*
X47000000Y62149165D01*
X47249787Y62750719D01*
X47251089Y64242736D01*
X46681322Y65621678D01*
X46410616Y65892857D01*
X47775000Y65892857D01*
X47775000Y70925000D01*
X51142857Y70925000D01*
X51142857Y65100000D01*
G36*
X35085907Y51832934D02*
X35744600Y50847130D01*
X35744600Y49372800D01*
X35894970Y48616838D01*
X35894970Y48408698D01*
X36073825Y47509534D01*
X36583161Y46747259D01*
X37257300Y46296814D01*
X37137414Y45704800D01*
X37137414Y44404800D01*
X37242007Y43848933D01*
X37570524Y43338404D01*
X38071783Y42995908D01*
X38666800Y42875414D01*
X40166800Y42875414D01*
X40722667Y42980007D01*
X41080000Y43209945D01*
X41080000Y40724439D01*
X40675002Y40804999D01*
X40674997Y40804998D01*
X34865003Y40804998D01*
X34864998Y40804999D01*
X34312086Y40695017D01*
X34099631Y40652757D01*
X33450784Y40219212D01*
X33450782Y40219209D01*
X33045786Y39814214D01*
X32947922Y39667750D01*
X32304367Y40097759D01*
X31539000Y40250000D01*
X23500000Y40250000D01*
X23500000Y45421572D01*
X25164211Y47085784D01*
X25164214Y47085786D01*
X25440982Y47500000D01*
X28000000Y47500000D01*
X28500530Y47599562D01*
X28673335Y47599411D01*
X28834451Y47665983D01*
X29339392Y47766422D01*
X29763724Y48049951D01*
X29923429Y48115940D01*
X30046802Y48239098D01*
X30474874Y48525126D01*
X33635762Y51686014D01*
X33915966Y51686014D01*
X34019600Y51665400D01*
X34123234Y51686014D01*
X34419600Y51686014D01*
X34975467Y51790607D01*
X35064246Y51847735D01*
X35085907Y51832934D01*
X35085907Y51832934D01*
G37*
X35085907Y51832934D02*
X35744600Y50847130D01*
X35744600Y49372800D01*
X35894970Y48616838D01*
X35894970Y48408698D01*
X36073825Y47509534D01*
X36583161Y46747259D01*
X37257300Y46296814D01*
X37137414Y45704800D01*
X37137414Y44404800D01*
X37242007Y43848933D01*
X37570524Y43338404D01*
X38071783Y42995908D01*
X38666800Y42875414D01*
X40166800Y42875414D01*
X40722667Y42980007D01*
X41080000Y43209945D01*
X41080000Y40724439D01*
X40675002Y40804999D01*
X40674997Y40804998D01*
X34865003Y40804998D01*
X34864998Y40804999D01*
X34312086Y40695017D01*
X34099631Y40652757D01*
X33450784Y40219212D01*
X33450782Y40219209D01*
X33045786Y39814214D01*
X32947922Y39667750D01*
X32304367Y40097759D01*
X31539000Y40250000D01*
X23500000Y40250000D01*
X23500000Y45421572D01*
X25164211Y47085784D01*
X25164214Y47085786D01*
X25440982Y47500000D01*
X28000000Y47500000D01*
X28500530Y47599562D01*
X28673335Y47599411D01*
X28834451Y47665983D01*
X29339392Y47766422D01*
X29763724Y48049951D01*
X29923429Y48115940D01*
X30046802Y48239098D01*
X30474874Y48525126D01*
X33635762Y51686014D01*
X33915966Y51686014D01*
X34019600Y51665400D01*
X34123234Y51686014D01*
X34419600Y51686014D01*
X34975467Y51790607D01*
X35064246Y51847735D01*
X35085907Y51832934D01*
G36*
X56626422Y52072008D02*
X57360000Y50974130D01*
X57360000Y49245800D01*
X57510370Y48489838D01*
X57510370Y48281698D01*
X57689225Y47382534D01*
X58198561Y46620259D01*
X58960836Y46110923D01*
X59253502Y46052708D01*
X59127308Y45868017D01*
X59006814Y45273000D01*
X59006814Y43973000D01*
X59111407Y43417133D01*
X59439924Y42906604D01*
X59941183Y42564108D01*
X60536200Y42443614D01*
X61727958Y42443614D01*
X62171573Y42000000D01*
X58250000Y42000000D01*
X57484633Y41847759D01*
X56835786Y41414214D01*
X56835784Y41414211D01*
X56709925Y41288353D01*
X56400000Y41350001D01*
X56399995Y41350000D01*
X55250000Y41350000D01*
X55250000Y51944800D01*
X55584195Y51944800D01*
X55584200Y51944799D01*
X55687838Y51965414D01*
X55984200Y51965414D01*
X56540067Y52070007D01*
X56616976Y52119497D01*
X56626422Y52072008D01*
X56626422Y52072008D01*
G37*
X56626422Y52072008D02*
X57360000Y50974130D01*
X57360000Y49245800D01*
X57510370Y48489838D01*
X57510370Y48281698D01*
X57689225Y47382534D01*
X58198561Y46620259D01*
X58960836Y46110923D01*
X59253502Y46052708D01*
X59127308Y45868017D01*
X59006814Y45273000D01*
X59006814Y43973000D01*
X59111407Y43417133D01*
X59439924Y42906604D01*
X59941183Y42564108D01*
X60536200Y42443614D01*
X61727958Y42443614D01*
X62171573Y42000000D01*
X58250000Y42000000D01*
X57484633Y41847759D01*
X56835786Y41414214D01*
X56835784Y41414211D01*
X56709925Y41288353D01*
X56400000Y41350001D01*
X56399995Y41350000D01*
X55250000Y41350000D01*
X55250000Y51944800D01*
X55584195Y51944800D01*
X55584200Y51944799D01*
X55687838Y51965414D01*
X55984200Y51965414D01*
X56540067Y52070007D01*
X56616976Y52119497D01*
X56626422Y52072008D01*
M02*
