M48
METRIC,TZ
T1C0.762
T2C0.800
T3C1.000
T4C1.001
T5C1.999
%
G90
G05
T1
X33190Y20620
X33190Y13000
X33190Y10460
X33190Y7920
X33190Y5380
X35730Y20620
X35730Y5380
X38270Y20620
X38270Y5380
X40810Y20620
X40810Y5380
X43350Y20620
X43350Y5380
X45890Y20620
X45890Y5380
X48430Y20620
X49700Y7920
X50970Y20620
X50970Y5380
X52240Y7920
X53510Y20620
X53510Y5380
X56050Y20620
X56050Y5380
X58590Y20620
X58590Y5380
X61130Y20620
X61130Y5380
T2
X34460Y36495
X34460Y28875
X37000Y36495
X37000Y28875
X56685Y36495
X56685Y28875
X59225Y36495
X59225Y28875
T3
X14000Y58250
X14500Y51000
X16100Y58250
X16600Y51000
X18250Y58250
X18750Y51000
X23250Y58250
X23750Y51000
X25400Y58250
X25900Y51000
X27500Y58250
X28000Y51000
X48430Y5380
T4
X14210Y33500
X16750Y33500
X19290Y33500
X35705Y49373
X38245Y49373
X40785Y49373
X48201Y53881
X48201Y48880
X57320Y49246
X59860Y49246
X62400Y49246
T5
X6250Y58500
X6500Y51250
X6500Y43750
X6750Y24000
X7000Y14750
X35000Y63500
X43500Y63500
X54750Y63500
X62750Y63250
T0
M30
